<?xml version="1.0" encoding="utf-8"?>
<!-- Generator: Adobe Illustrator 18.0.0, SVG Export Plug-In . SVG Version: 6.00 Build 0)  -->
<!DOCTYPE svg PUBLIC "-//W3C//DTD SVG 1.1//EN" "http://www.w3.org/Graphics/SVG/1.1/DTD/svg11.dtd">
<svg version="1.1" id="Layer_1" xmlns="http://www.w3.org/2000/svg" xmlns:xlink="http://www.w3.org/1999/xlink" x="0px" y="0px"
	 viewBox="154 62 487 508" enable-background="new 154 62 487 508" xml:space="preserve">
<text transform="matrix(1 0 0 1 250.4761 254.2851)" display="none" enable-background="new    " font-family="'Lavanderia-Regular'" font-size="115.9193">Fresco</text>
<text transform="matrix(1 0 0 1 294.3254 532.8048)" display="none" enable-background="new    " font-family="'Lavanderia-Regular'" font-size="97.8782">Cafe</text>
<g display="none">
	<path display="inline" d="M372,204.5c30.1,0,50.5-25.7,53.5-44.2c0.9-5.4,0.3-10.4-1.5-14.1c-2.2-4.1-6-6.8-11.1-7.6
		c-1.2-0.2-2.4-0.3-3.4-0.3c-20.6,0-40.1,30.6-45.7,59.7c-12.1-2.7-24.6-10.9-22.1-26c1.7-10,9.7-16.5,19-14.8
		c3.1,0.5,4.9,1.9,5.8,2.6l0.5,0.3l1.2-0.2c2.5-0.3,4.3-2.7,3.9-5.6l-0.2-0.7l-0.5-0.3c-2.7-1.9-5.8-3.2-9.4-3.7
		c-1.4-0.2-2.9-0.3-4.3-0.3c-11.9,0-21.6,8.7-23.6,20.9c-2.2,12.8,4.1,29.1,28.7,33.8c-2.7,19.9,2.7,32.6,15.6,36.2
		c1.4,8.7,5.6,14.8,11.9,17.2c0.3,0.2,0.7,0.2,1,0.2c1.2,0,2.9-0.7,3.6-1.7c0.2-0.3,1-1.9,0.3-3.4c-0.2-0.5-0.7-1.4-1.9-1.7
		c-3.6-1.4-6.1-4.9-7.5-10c12.8-1.2,21.3-12.2,22.9-22.6c1.5-8.8-2.2-15.1-9.2-16.3c-11.4-1.9-19.2,11.7-21.3,24.1
		c-0.3,1.7-0.7,4.8-0.7,8c-7.1-3.2-9.5-12.9-7-29.1C371.4,204.5,371.7,204.5,372,204.5z M417.8,158.3c-2.9,16.8-20.2,39.9-45.6,40.5
		c6.3-26,23.5-54.4,38.1-54.4c0.7,0,1.2,0,1.9,0.2C419.1,145.5,418.3,154.5,417.8,158.3z M399.1,207.4c3.1,0.7,3.4,4.8,2.7,8.3
		c-1.2,7.1-7.1,17.5-16.7,18.9c-0.2-2.9,0-5.9,0.5-9c1.9-10.9,6.8-18.4,12.2-18.4C398.4,207.4,398.9,207.4,399.1,207.4z"/>
	<path display="inline" d="M535.6,201.5c-3.1-4.6-8.2-7.5-14.8-8.7c-1.4-0.2-2.9-0.3-4.3-0.3c-14.8,0-24.6,13.3-32.5,23.8
		c-4.8,6.5-9.4,12.6-13.1,12.6l0,0c-0.2,0-0.3,0-0.5,0c-4.1-0.7-3.6-6.8-3.1-10.4c0.3-1.7,0.7-3.4,1.2-5.3c1-0.2,2-0.3,3.2-0.7
		c9.2-2.9,14.3-9.5,15.1-14.4c0.7-4.3-1.4-7.5-5.6-8.3c-7.8-1.4-15.5,8.2-19.4,18.7c-4.1,6.8-9.5,10.5-13.8,11.7
		c1.2-3.6,2.4-7.3,3.7-11.1c4.4-5.6,21.6-29.1,24-43.9c0.3-2,0.2-3.7-0.7-5.1s-2-2.4-3.7-2.6c-2.7-0.5-6.1,1.5-8.5,5.3
		c-4.3,7-12.1,25.5-18.4,43.5c-6.5,10.7-9.7,13.8-10.9,14.6c0-0.3,0-0.8,0.2-1.4c0.2-0.8,0.5-2.4,1-4.3c2.5-8.7,6.5-19,10.4-29.1
		l0.7-1.7l-7.1-1.2l-0.3,1.9c-1.2-2.4-3.1-3.2-4.8-3.6c-9.5-1.5-19.7,17.8-21.9,30.4c-1.7,10.4,2.4,12.8,5.1,13.3
		c3.4,0.5,6.8-1.4,10.4-5.6c-0.2,1.5,0,2.9,0.2,4.1c0.5,2.9,2.4,3.9,3.7,4.1c0.3,0,0.5,0,0.9,0c2.4,0,4.8-1.7,7.8-5.4
		c-1.5,5.4-2.9,10.5-3.6,14.6c-0.7,4.4-0.5,7.8,0.7,10c1,2,2.9,3.2,5.3,3.6c0.3,0,0.7,0.2,1,0.2c4.6,0,8.8-5.1,10-11.7
		c0.9-4.9-0.2-9.9-2.9-13.8c3.2-1,6.3-3.1,9.5-6.1c-0.2,3.2,0,6.1,1,8.5c1.4,3.7,4.1,5.9,7.8,6.6c9.7,1.7,16.3-7.3,23.5-16.8
		c7-9.3,14.3-19.2,24.6-19.2c1,0,2,0.2,3.1,0.3c4.3,0.7,7.5,2.7,9.5,5.9c1.7,2.9,2.4,6.5,1.7,10.4c-1.2,7-7,14.5-16.8,14.5
		c-1.2,0-2.4-0.2-3.6-0.3c-5.6-1-9.5-3.9-12.4-9.4l-0.9-1.5l-5.8,4.1l0.7,1.2c3.7,6.6,9.5,10.5,17.2,11.9c1.7,0.3,3.4,0.5,5.1,0.5
		c14.1,0,22.3-10.2,24-19.7C539.3,210.6,538.3,205.5,535.6,201.5z M480,195.8h0.2c0,0,0.2,0.3,0,1c-0.3,2.6-3.4,6.6-9,9.5
		C474.4,199.8,477.9,195.8,480,195.8z M443.3,239c0.5-2.7,1.4-6.1,2.4-9.9c1.5,2.9,2,6.3,1.5,9.7c-0.7,3.9-2.5,6.3-3.7,6.3l0,0
		C443.3,245,442.6,243.4,443.3,239z M470.5,165.4c-1.4,5.8-5.6,14.3-10.2,22.1C465,176,468.4,168.6,470.5,165.4z M419.8,218.6
		L419.8,218.6c-0.3,0-0.5-0.5-0.5-1c-0.2-0.7-0.2-1.9,0.2-4.3c1.9-10.9,9.9-25.2,13.3-25.2h0.2c0.2,0,0.8,0.2,1.2,1.4
		c0.2,0.9,0.3,2.2,0,4.8C432.4,204,423.2,218.6,419.8,218.6z"/>
</g>
<text transform="matrix(1 0 0 1 447.4084 333.8166)" display="none" enable-background="new    " font-family="'CYBERTOOTH'" font-size="20.4">Cafe</text>
<image display="none" overflow="visible" enable-background="new    " width="2141" height="2849" xlink:href="12859541.jpg"  transform="matrix(0.1921 0 0 0.1921 108.4389 52.896)">
</image>
<path fill="#FFFFFF" d="M403.3,540.6c4-6,9.4-13.1,16.8-21.1c15.1-16.6,37.1-31.4,62.8-48.8c34-23.1,72.8-49.1,107.6-87.4
	c69.7-76.5,50.2-169.9-3.4-218.7c-45.1-41.1-117-53.7-176.1,10.8c-58.8,64.5-36.8,126.7,3.1,163.6c2.6,2.6,5.4,4.9,8.8,7.4
	c6,4.6,14.8,4,20-1.7c0.6-0.6,1.1-1.4,1.7-2.3c4-6.3,2.6-14.6-3.1-19.1c-3.1-2.3-6-4.9-8.6-7.4c-6-5.4-11.1-11.1-15.4-16.8
	c1.4,0.9,2.9,1.7,4.6,2.3c3.1,1.4,6.9-0.3,8-3.4c1.1-3.1-0.3-6.9-3.4-8c-13.4-5.4-18.8-22.3-20.3-40.8c1.7,2.3,5.1,2.9,7.7,1.4
	c2.9-1.7,4-5.4,2.3-8.3c-12.8-23.4,20.6-60.8,39.4-77.9c38.5-19.4,80.5-6.3,109.9,20.6c46.5,42.5,63.9,117.9,6.9,180.1
	c-31.7,34.5-65.9,59.4-95.9,81.1c-26,18.6-50.2,36.3-69.7,57.4c-3.7,4-7.4,8.6-10.3,13.1c-10.6-28.3-36.3-75.1-97.9-144.7
	l-13.7-16.3c-122.2-145.3-98.8-203.3-70.2-234.7c32.5-35.7,66.5-27.7,85.9-10.3c18.3,16.6,22.3,39.1,9.1,54
	c-4,6.6-3.4,17.1,1.1,21.1c7.1,6,15.1,5.1,21.7-2.3l0,0c25.1-28.8,14-69.9-11.4-93.1c-26.5-24.3-73.9-34.5-120.2,16.3
	c-58.8,64.2-37.7,153.9,64.5,273.5l13.7,15.7l14,16.3c49.7,57.4,79.1,100.8,87.9,129l10.8,14.3L403.3,540.6z"/>
<g display="none">
	<path display="inline" d="M338.9,280.7v-1l-1-0.5c-1-0.5-1.9-1-2.9-1.5c-1.4-0.7-2.9-1.5-4.4-2l-1.2-0.5l-0.7,1.2
		c-0.2,0.3-3.9,6.6-8,17.7c-3.9,2.4-8.8,3.9-15.1,4.9l1.2-10.5c4.4-37.2,10.4-62.6,17.9-75.3c6.8-2.5,11.6-6.3,14.3-11l0.5-0.9
		l-6-7.5l-0.9,0.2c-3.7,0.7-9.4,3.4-15.5,11.4c-3.6,0.7-7.8,0.9-13.3,0.9c-11,0-24-3.1-38.8-6.6c-19.7-4.8-42.2-10.2-68-10.2
		c-51.2,0-78.9,38.3-78.9,74.3c0,30.3,19.4,60.9,62.9,60.9c43.3,0,58.6-28.9,58.6-55.8c0-1.9,0-3.6-0.2-5.6
		c-0.3-3.7-3.6-6.8-7.3-6.8c-0.5,0-0.9,0-1.5,0.2c-3.6,0.7-6.1,3.9-5.9,7.6c0.2,1.9,0.2,3.7,0.2,5.6c0,4.1-0.3,7.8-1,11.2
		c-0.2-0.9-0.3-1.5-0.7-2.4c-0.5-1.5-2.4-2.4-3.9-1.9c-1.5,0.5-2.4,2.4-1.9,3.9c2.4,6.6-1.9,14.3-8.2,21.1c0.2-1.4-0.7-2.9-2-3.4
		c-1.5-0.5-3.4,0.3-3.9,1.9c-4.3,12.6-29.1,12.8-41.6,11.6c-16.2-6.1-25.2-20.1-28.1-35.5c1,0.5,2.2,0.5,3.2,0
		c1.7-0.9,2.2-2.9,1.4-4.6l-0.2-0.2c0,0-0.7-1.2-1.7-3.1c-0.5-1-1-2.2-1.5-3.6c-0.2-0.9-0.5-1.5-0.9-2.5c0.9,0.8,2,1.2,3.2,0.8
		c1.9-0.5,2.9-2.4,2.4-4.3v-0.3c0,0-0.3-1.2-0.9-3.4c-0.2-1-0.5-2.4-0.7-3.9c-0.2-1.5-0.3-3.2-0.2-5.1c0-0.5,0-1,0-1.4
		c0-0.5,0.2-1,0.2-1.5c0.2-1,0.2-2,0.5-3.1c0.2-0.5,0.2-1,0.3-1.5c0.2-0.5,0.3-1,0.5-1.7c0.2-0.5,0.3-1,0.5-1.7
		c0.2-0.5,0.5-1,0.7-1.7c0.2-0.5,0.5-1.2,0.8-1.7c10-17.2,28.4-29.9,54.9-29.9c23.1,0,43.7,4.3,61.7,8c15.5,3.2,30.1,6.3,44.2,6.3
		c2.7,0,5.6-0.2,8.2-0.5c-6.8,13.3-15.3,38.4-20.2,84.1c-21.6,1.7-44.2,14.8-44.2,33.5c0,4.4,0.8,8.2,2.7,11.4l0.7,1.2l12.7-4.9
		l-0.5-1.4c-1-3.1-1.5-5.4-1.5-7.8c0-16,20.1-20.2,28.7-21.4c-12.2,93.2-41.3,104-62.2,104c-5.8,0-10.5-0.9-14.6-2.4
		c-0.5-0.3-1.2-0.7-1.7-1c-1.2-0.9-2.4-1.5-3.6-2.5c-1-0.9-2.2-1.9-3.1-2.9c-1.4-2.5-2-5.1-2.5-7.5c-0.5-2.4-0.7-4.4-0.7-5.8
		s0-2.2,0-2.2v-0.2c0-1-0.9-1.7-1.7-1.7c-0.5,0-1,0.2-1.4,0.7c0-1.5,0.2-3.1,0.3-4.4c0.3-2.4,1-4.3,1.4-5.4c0.2-0.7,0.3-1.2,0.5-1.5
		c0.2-0.3,0.2-0.5,0.2-0.5l0,0c0,0,0-0.2,0.2-0.2c0.5-1.4-0.3-2.7-1.5-3.2c-0.3-0.2-0.7-0.2-1.2-0.2c2.9-5.1,7.6-8.3,13.4-8.3
		c3.7-0.7,7.5-4.4,7.3-7.5c-0.2-4.6-3.1-7.3-8.2-7.3l0,0c-18.9,0.5-30.3,18.2-30.3,35.2c0,17.9,12.1,38.6,46.1,38.6
		c43.2,0,68.9-37.6,78.5-114.9c4.4-0.7,8.5-1.7,12.2-3.2c-3.6,12.6-5.4,24.5-5.4,36.4v1.5h12.6v-1.5c0-18,2.5-33.1,4.1-42.2
		C337,292.9,338.7,284.1,338.9,280.7z M178.1,319.3c4.1-0.3,8.7-0.9,13.8-2c2.6-0.5,4.9-1.2,7.5-2s5.1-1.7,7.5-2.9
		c2.4-1,4.8-2.4,7-3.9c2.2-1.5,4.3-3.1,5.9-4.8c0.5-0.5,0.9-0.9,1.4-1.4c0.3-0.5,0.9-0.9,1.2-1.4c0.3-0.5,0.9-0.8,1.2-1.4
		c0.3-0.5,0.7-1,1-1.4c0.7-0.9,1.2-1.9,1.7-2.7c0.3-0.5,0.5-0.9,0.7-1.4s0.3-0.9,0.7-1.4c0.8-1.7,1.4-3.6,1.9-4.9
		c0.3-1.5,0.7-2.9,0.8-4.1c0.3-2.2,0.5-3.6,0.5-3.6V280c0.2-0.9,1-1.5,1.9-1.5c0.9,0.2,1.5,1,1.5,1.9l0,0c0,0-0.2,1.4-0.7,3.7
		c-0.3,1.2-0.7,2.7-1.2,4.3c-0.7,1.5-1.2,3.4-2.2,5.3c-0.2,0.5-0.5,1-0.7,1.5c-0.3,0.5-0.5,1-0.9,1.4c-0.5,1-1.2,2-2,2.9
		c-0.3,0.5-0.7,1-1.2,1.5c-0.3,0.5-0.8,0.8-1.2,1.4c-0.5,0.5-0.9,1-1.4,1.4c-0.5,0.5-1,0.9-1.4,1.4c-1.9,1.7-4.1,3.4-6.5,4.8
		c-2.4,1.4-4.8,2.7-7.3,3.7s-5.1,1.9-7.6,2.7c-2.6,0.7-5.1,1.4-7.7,1.7c-5.1,0.9-9.9,1.4-13.9,1.5c-8.2,0.3-13.6-0.3-13.6-0.3
		S169.9,319.9,178.1,319.3z M191.7,398.7c-0.3-0.7-0.7-1.5-1-2.4c-0.3-1-0.7-2-1-3.2c-0.3-1.2-0.7-2.6-1-3.9
		c-0.2-0.7-0.2-1.4-0.3-2.2c0-0.7-0.2-1.5-0.2-2.4s0-1.5,0-2.4s0.2-1.7,0.2-2.4c0.2-1.7,0.5-3.2,1.2-4.9c1-3.2,2.9-6.1,4.9-8.7
		c1-1.2,2-2.4,3.2-3.2c1-1,2.2-1.9,3.2-2.6c2-1.5,3.9-2.4,5.3-3.1c1.4-0.7,2.2-0.9,2.2-0.9l0,0c0.5-0.2,0.9,0,1,0.5s0,0.9-0.5,1l0,0
		c0,0-0.7,0.2-2,0.9c-1.4,0.5-3.2,1.5-5.3,2.7c-1,0.7-2,1.4-3.2,2.4c-1,0.9-2.2,1.9-3.2,3.1c-2,2.2-3.9,5.1-4.9,8.2
		c-0.7,1.5-1,3.1-1.2,4.8c-0.2,0.9-0.2,1.5-0.3,2.4c0,0.9,0,1.5,0,2.4c0,0.8,0,1.5,0.2,2.2c0.2,0.7,0.2,1.5,0.3,2.2
		c0.3,1.4,0.5,2.7,0.9,3.9c0.3,1.2,0.7,2.4,1,3.2C191.2,397.1,191.5,398,191.7,398.7c0.7,1.4,0.8,2,0.8,2S192.3,400,191.7,398.7z"/>
	<path display="inline" d="M624.8,323.9c-1-1.5-3.9-2-4.9-2h-1l-0.3,1c-3.6,9-7.5,14.8-12.6,18.5c7.5-21.8,7.3-45.7-0.5-57.3
		c-3.6-5.3-8.7-8-14.6-8c-16,0-24.6,14.5-27.7,28.6l-6.3-1.7l-0.3,1.4c-1.9,6.6-3.4,12.9-4.3,18.9c-11.2,28.6-19.7,40-30.1,40.3
		c-11.9-0.2-13.6-16-13.6-25.3c0-24.3,11.1-52.2,20.7-52.2c4.8,0,5.1,7.5,5.1,9.7c0,7.1-2.9,16.3-7.7,24.1l-0.8,1.4l11.2,6.3
		l0.7-1.4c4.8-8.8,7.6-19.5,7.6-28.7c0-13.6-5.8-21.8-15.6-21.8c-16.7,0-28.4,23.1-32.6,46.1l-0.3,0.9c-3.4,8.8-6.5,16-9.4,21.8
		c-0.5-10-4.9-21.3-9.2-32c-4.1-10.5-8.5-21.4-9-31.3c2.6-8.5,4.1-17.5,5.1-29.9l0.2-1.4l-11.4-2.2l-0.5,1.9
		c-1.7,5.8-3.7,12.7-3.7,20.4c0,7.7,0.3,12.8,1.2,17.5c-2.9,8.8-6.1,17.9-9.2,25.8c-1.2,3.4-2.4,6.6-3.4,9.4l0,0
		c-10.2,27-20.4,40.8-30.4,40.8c-11.2,0-12.8-14.6-12.8-23.5c0-3.2,0.3-6.6,0.9-10.7c16-3.6,34.9-21.9,34.9-39.3
		c0-8.8-5.1-14.5-13.4-14.5c-16.3,0-29.6,22.6-34.3,47.1l0,0c-10.2,27.2-17.9,41-22.6,41c-1.7,0-2.7-1.5-2.7-4.3
		c0-4.8,2-10.9,4.3-17.3c2.5-8,5.6-17,5.6-25.7c0-11.4-6.5-19.7-11.6-26.4c-1.4-1.7-2.5-3.4-3.7-4.9c2.4-11.2,3.6-22.1,3.9-32.3
		v-1.4l-1.4-0.2c-3.2-0.5-6.8-1.2-9.5-1.7l-1.5-0.3l-0.3,1.5c-2.7,11.7-4.9,25.2-0.9,37.4c-6.8,31.8-16,63.9-24,84.2l-0.5,1.4
		l6.6,3.2l0.7-1.5c7-17.3,16.8-47.1,23.5-75.3c2.7,5.3,5.4,10.9,5.4,18.2c0,6.3-2.5,13.6-4.9,20.7c-2.5,7.3-5.1,15-5.1,21.9
		c0,12.8,7.1,14.6,11.2,14.6c11.7,0,18.7-10.9,26-28.6c1.5,18.7,9.9,29.2,23.5,29.2c11,0,19.7-9,26.9-21.3v0.9
		c-0.3,5.8,1.2,10.7,4.6,14.3c3.6,3.7,9,6,15,6c17,0,27.4-16,34.5-31.5c0.9,20.1,8.7,31.5,21.6,31.5c15.5,0,25.7-13.9,33.7-30.3
		c0.5,9.7,2.5,17.5,6.5,22.6s9.2,7.6,16,7.6c10.4,0,21.6-9.4,29.1-24.3c10-3.1,17.9-11.9,23.3-26.2
		C625.3,325.2,625.3,324.5,624.8,323.9z M425.4,284.4c2.2,0,2.6,3.2,2.6,6c0,9.2-7.5,21.9-21.8,29.8
		C410.5,300.1,418.8,284.4,425.4,284.4z M461.5,365c-5.6,0-8-4.6-8-9v-1.5l-12.2,0.5c4.9-8.8,9.2-19,12.6-28.7l0,0
		c3.2-8.7,6.3-16.7,8.7-24.1c1.5,6.8,3.4,12.9,5.1,18.7c3.1,10.2,5.6,18.9,5.6,27.4C473.2,357.3,468.1,365,461.5,365z M572.8,367.4
		c-2.5,0-4.6-0.9-6.3-2.9c-4.4-5.3-5.4-17.2-3.1-35c3.1,13.4,11.6,22.1,23.6,23.8C583.3,362.1,577.9,367.4,572.8,367.4z
		 M590.5,344.8c-13.9-0.7-19-14.1-19-26.9c0-16.1,7.6-33.3,19-33.3c1.9,0,3.4,0.9,4.8,2.7C601.2,296.1,599,322.8,590.5,344.8z"/>
</g>
<path display="none" fill="#FFFFFF" d="M364.7,521.7l3.2,4.1c11.2,14.3,17.9,25,19.7,31.8c-1.4,3.2-1.9,6.1-1,8.7l0.2,0.5l4.6,0.5
	l0.2-0.3c1-1.5,2-4.4,1.4-9.2c1-1.4,2.4-3.1,4.3-4.9c3.7-3.7,9.2-7.1,15.5-11c8.3-5.1,17.9-10.9,26.7-19.7
	c17.5-17.5,13.9-40.1,1.5-52.4c-10.4-10.4-27.4-14.1-42.3,0.7c-14.8,14.8-10.2,29.9-1,39.1c0.7,0.7,1.4,1.2,2,1.9
	c1.4,1.2,3.6,1,4.8-0.2c0.2-0.2,0.3-0.3,0.5-0.5c1-1.5,0.7-3.4-0.5-4.6c-0.7-0.7-1.4-1.2-2-1.9c-1.4-1.4-2.6-2.7-3.6-4.3
	c0.3,0.2,0.7,0.3,1,0.5c0.7,0.3,1.7,0,2-0.7s0-1.7-0.7-2c-3.1-1.4-4.3-5.6-4.4-10c0.3,0.5,1.2,0.9,1.9,0.5c0.7-0.3,1-1.2,0.7-2
	c-2.9-5.8,5.6-14.3,10.2-18.2c7.6-3.4,15.5-1.7,21.8,2.5c-0.5,0.2-1,0.5-1.2,1c-0.3,0.9,0.2,1.9,1,2h0.2c0,0,0.5,0.2,1.5,0.5
	c0.5,0.2,1,0.5,1.7,0.7c0.3,0.2,0.7,0.3,1.2,0.5c-0.5,0-1,0.3-1.4,0.9c-0.5,0.9-0.2,1.9,0.7,2.2h0.2c0,0,0.5,0.3,1.5,0.9
	c0.5,0.3,1,0.7,1.5,1c0.5,0.5,1.2,1,1.9,1.7c0.2,0.2,0.3,0.3,0.5,0.5c0.2,0.2,0.3,0.3,0.5,0.5c0.3,0.3,0.7,0.9,0.8,1.2
	c0.2,0.2,0.3,0.5,0.5,0.7c0.2,0.2,0.3,0.5,0.3,0.7c0.2,0.2,0.3,0.5,0.3,0.7c0.2,0.3,0.2,0.5,0.3,0.9c0.2,0.3,0.2,0.5,0.3,0.9
	c2.5,9.4,0.5,19.9-8.5,29.1c-8,8-16.3,13.4-23.8,18.4c-6.5,4.3-12.4,8.2-17.3,12.9c-1,1-1.9,2-2.6,3.1c-2.2-7-7.8-18.4-21.9-35.7
	l-3.1-4.1c-27.7-36-21.4-49.8-14.3-56.9c1.9-1.9,3.9-3.2,5.8-4.3c0.3,0,0.7-0.2,0.9-0.2c0.7-0.2,1.4-0.3,2-0.3s1.4,0,2,0
	c1.4,0.5,2.5,1,3.4,1.7c1,0.7,1.7,1.4,2.2,1.7c0.5,0.5,0.7,0.7,0.7,0.7l0,0c0.3,0.3,0.8,0.3,1.2,0c0.2-0.2,0.2-0.3,0.2-0.7
	c0.5,0.5,1,1,1.4,1.7c0.7,0.9,1.2,1.7,1.4,2.4c0.2,0.3,0.2,0.5,0.3,0.7c0,0.2,0.2,0.2,0.2,0.2l0,0c0,0,0,0,0,0.2
	c0.3,0.7,1,0.9,1.7,0.5c0.2,0,0.3-0.2,0.3-0.3c0.7,2.7,0.2,5.4-1.7,7.5c-1,1.5-1,4.1,0,5.1c1.7,1.5,3.6,1.4,5.3-0.3l0,0
	c6.3-6.6,4.1-16.5-1.7-22.4c-6.1-6.1-17.3-9-28.9,2.5c-14.8,14.8-10.7,36.4,12.4,66.1L364.7,521.7z M401.4,471.1
	c-1.4,1.5-2.7,3.2-4.1,5.4c-0.7,1-1.4,2-1.9,3.2c-0.5,1.2-1.2,2.4-1.5,3.6c-0.5,1.2-0.9,2.4-1,3.7c-0.2,1.2-0.3,2.5-0.3,3.7
	c0,0.3,0,0.5,0,0.8c0,0.3,0,0.5,0,0.9s0,0.5,0,0.9s0.2,0.5,0.2,0.9c0,0.5,0.2,1,0.3,1.5c0,0.2,0.2,0.5,0.2,0.7
	c0.2,0.2,0.2,0.5,0.3,0.7c0.3,0.9,0.7,1.7,1,2.4s0.7,1.2,1,1.7c0.7,0.9,1,1.4,1,1.4l0,0c0.3,0.3,0.2,0.9-0.2,1.2
	c-0.3,0.3-0.9,0.2-1.2-0.2l0,0c0,0-0.3-0.5-1-1.5c-0.3-0.5-0.7-1.2-1-1.9c-0.3-0.7-0.9-1.5-1-2.6c0-0.2-0.2-0.5-0.2-0.7
	c0-0.3-0.2-0.5-0.2-0.8c-0.2-0.5-0.3-1-0.3-1.7c0-0.3,0-0.5-0.2-0.9c0-0.3,0-0.7,0-0.9c0-0.3,0-0.7,0-0.8c0-0.3,0-0.7,0-1
	c0-1.2,0.3-2.6,0.5-3.9c0.3-1.2,0.7-2.6,1.2-3.7c0.5-1.2,1.2-2.4,1.7-3.6c0.7-1.2,1.4-2.2,2-3.2c1.4-2,2.9-3.7,4.3-5.3
	c2.7-2.9,4.8-4.6,4.8-4.6S404,468.2,401.4,471.1z M369.5,448.6c0.3,0.2,0.7,0.3,1.2,0.5c0.5,0.2,1,0.5,1.5,0.7c0.5,0.3,1,0.7,1.7,1
	c0.3,0.2,0.5,0.3,0.8,0.7c0.3,0.2,0.5,0.5,0.9,0.7c0.3,0.3,0.5,0.5,0.9,0.9s0.5,0.7,0.9,0.9c0.5,0.7,1,1.4,1.4,2
	c0.7,1.5,1.2,3.1,1.4,4.6c0,0.9,0,1.5,0,2.2s-0.2,1.4-0.2,2c-0.2,1.2-0.5,2.2-0.9,2.9c-0.2,0.7-0.5,1-0.5,1l0,0
	c-0.2,0.2-0.3,0.3-0.5,0.2s-0.3-0.3-0.2-0.5l0,0c0,0,0.2-0.3,0.5-1c0.2-0.7,0.5-1.5,0.8-2.7c0.2-0.5,0.2-1.2,0.3-1.9
	c0-0.7,0-1.4,0-2.2c-0.2-1.5-0.3-3.1-1-4.4c-0.3-0.7-0.7-1.4-1.2-2c-0.2-0.3-0.5-0.7-0.7-0.9c-0.3-0.3-0.5-0.5-0.9-0.9
	c-0.3-0.2-0.5-0.5-0.9-0.7c-0.3-0.2-0.5-0.5-0.8-0.7c-0.5-0.3-1-0.9-1.7-1c-0.5-0.3-1-0.5-1.5-0.8
	C370.3,449,369.8,448.8,369.5,448.6c-0.7-0.2-1-0.3-1-0.3S369,448.5,369.5,448.6z"/>
</svg>
