<?xml version="1.0" encoding="utf-8"?>
<!-- Generator: Adobe Illustrator 18.0.0, SVG Export Plug-In . SVG Version: 6.00 Build 0)  -->
<!DOCTYPE svg PUBLIC "-//W3C//DTD SVG 1.1//EN" "http://www.w3.org/Graphics/SVG/1.1/DTD/svg11.dtd" [
	<!ENTITY st0 "display:none;">
	<!ENTITY st1 "font-family:'Lavanderia-Regular';">
	<!ENTITY st2 "font-size:68.1878;">
	<!ENTITY st3 "font-size:57.5754;">
	<!ENTITY st4 "display:inline;">
	<!ENTITY st5 "font-family:'CYBERTOOTH';">
	<!ENTITY st6 "font-size:12;">
	<!ENTITY st7 "fill:#FFFFFF;">
	<!ENTITY st8 "display:none;fill:#FFFFFF;">
]>
<svg version="1.1" id="Layer_1" xmlns="http://www.w3.org/2000/svg" xmlns:xlink="http://www.w3.org/1999/xlink" x="0px" y="0px"
	 viewBox="0 0 360 360" style="enable-background:new 0 0 360 360;" xml:space="preserve">
<text transform="matrix(1 0 0 1 94.3978 149.5793)" style="&st0; &st1; &st2;">Fresco</text>
<text transform="matrix(1 0 0 1 120.1915 313.4146)" style="&st0; &st1; &st3;">Cafe</text>
<g style="&st0;">
	<path style="&st4;" d="M165.9,120.3c17.7,0,29.7-15.1,31.5-26c0.5-3.2,0.2-6.1-0.9-8.3c-1.3-2.4-3.5-4-6.5-4.5
		c-0.7-0.1-1.4-0.2-2-0.2c-12.1,0-23.6,18-26.9,35.1c-7.1-1.6-14.5-6.4-13-15.3c1-5.9,5.7-9.7,11.2-8.7c1.8,0.3,2.9,1.1,3.4,1.5
		l0.3,0.2l0.7-0.1c1.5-0.2,2.5-1.6,2.3-3.3l-0.1-0.4l-0.3-0.2c-1.6-1.1-3.4-1.9-5.5-2.2c-0.8-0.1-1.7-0.2-2.5-0.2
		c-7,0-12.7,5.1-13.9,12.3c-1.3,7.5,2.4,17.1,16.9,19.9c-1.6,11.7,1.6,19.2,9.2,21.3c0.8,5.1,3.3,8.7,7,10.1
		c0.2,0.1,0.4,0.1,0.6,0.1c0.7,0,1.7-0.4,2.1-1c0.1-0.2,0.6-1.1,0.2-2c-0.1-0.3-0.4-0.8-1.1-1c-2.1-0.8-3.6-2.9-4.4-5.9
		c7.5-0.7,12.5-7.2,13.5-13.3c0.9-5.2-1.3-8.9-5.4-9.6c-6.7-1.1-11.3,6.9-12.5,14.2c-0.2,1-0.4,2.8-0.4,4.7
		c-4.2-1.9-5.6-7.6-4.1-17.1C165.5,120.3,165.7,120.3,165.9,120.3z M192.8,93.1c-1.7,9.9-11.9,23.5-26.8,23.8
		c3.7-15.3,13.8-32,22.4-32c0.4,0,0.7,0,1.1,0.1C193.6,85.6,193.1,90.9,192.8,93.1z M181.8,122c1.8,0.4,2,2.8,1.6,4.9
		c-0.7,4.2-4.2,10.3-9.8,11.1c-0.1-1.7,0-3.5,0.3-5.3c1.1-6.4,4-10.8,7.2-10.8C181.4,122,181.7,122,181.8,122z"/>
	<path style="&st4;" d="M262.1,118.5c-1.8-2.7-4.8-4.4-8.7-5.1c-0.8-0.1-1.7-0.2-2.5-0.2c-8.7,0-14.5,7.8-19.1,14
		c-2.8,3.8-5.5,7.4-7.7,7.4c0,0,0,0,0,0c-0.1,0-0.2,0-0.3,0c-2.4-0.4-2.1-4-1.8-6.1c0.2-1,0.4-2,0.7-3.1c0.6-0.1,1.2-0.2,1.9-0.4
		c5.4-1.7,8.4-5.6,8.9-8.5c0.4-2.5-0.8-4.4-3.3-4.9c-4.6-0.8-9.1,4.8-11.4,11c-2.4,4-5.6,6.2-8.1,6.9c0.7-2.1,1.4-4.3,2.2-6.5
		c2.6-3.3,12.7-17.1,14.1-25.8c0.2-1.2,0.1-2.2-0.4-3c-0.5-0.8-1.2-1.4-2.2-1.5c-1.6-0.3-3.6,0.9-5,3.1c-2.5,4.1-7.1,15-10.8,25.6
		c-3.8,6.3-5.7,8.1-6.4,8.6c0-0.2,0-0.5,0.1-0.8c0.1-0.5,0.3-1.4,0.6-2.5c1.5-5.1,3.8-11.2,6.1-17.1l0.4-1l-4.2-0.7L205,109
		c-0.7-1.4-1.8-1.9-2.8-2.1c-5.6-0.9-11.6,10.5-12.9,17.9c-1,6.1,1.4,7.5,3,7.8c2,0.3,4-0.8,6.1-3.3c-0.1,0.9,0,1.7,0.1,2.4
		c0.3,1.7,1.4,2.3,2.2,2.4c0.2,0,0.3,0,0.5,0c1.4,0,2.8-1,4.6-3.2c-0.9,3.2-1.7,6.2-2.1,8.6c-0.4,2.6-0.3,4.6,0.4,5.9
		c0.6,1.2,1.7,1.9,3.1,2.1c0.2,0,0.4,0.1,0.6,0.1c2.7,0,5.2-3,5.9-6.9c0.5-2.9-0.1-5.8-1.7-8.1c1.9-0.6,3.7-1.8,5.6-3.6
		c-0.1,1.9,0,3.6,0.6,5c0.8,2.2,2.4,3.5,4.6,3.9c5.7,1,9.6-4.3,13.8-9.9c4.1-5.5,8.4-11.3,14.5-11.3c0.6,0,1.2,0.1,1.8,0.2
		c2.5,0.4,4.4,1.6,5.6,3.5c1,1.7,1.4,3.8,1,6.1c-0.7,4.1-4.1,8.5-9.9,8.5c-0.7,0-1.4-0.1-2.1-0.2c-3.3-0.6-5.6-2.3-7.3-5.5l-0.5-0.9
		l-3.4,2.4l0.4,0.7c2.2,3.9,5.6,6.2,10.1,7c1,0.2,2,0.3,3,0.3c8.3,0,13.1-6,14.1-11.6C264.3,123.9,263.7,120.9,262.1,118.5z
		 M229.4,115.2l0.1,0c0,0,0.1,0.2,0,0.6c-0.2,1.5-2,3.9-5.3,5.6C226.1,117.5,228.2,115.2,229.4,115.2z M207.8,140.6
		c0.3-1.6,0.8-3.6,1.4-5.8c0.9,1.7,1.2,3.7,0.9,5.7c-0.4,2.3-1.5,3.7-2.2,3.7c0,0,0,0,0,0C207.8,144.1,207.4,143.2,207.8,140.6z
		 M223.8,97.3c-0.8,3.4-3.3,8.4-6,13C220.6,103.5,222.6,99.2,223.8,97.3z M194,128.6C194,128.6,194,128.6,194,128.6
		c-0.2,0-0.3-0.3-0.3-0.6c-0.1-0.4-0.1-1.1,0.1-2.5c1.1-6.4,5.8-14.8,7.8-14.8l0.1,0c0.1,0,0.5,0.1,0.7,0.8c0.1,0.5,0.2,1.3,0,2.8
		C201.4,120,196,128.6,194,128.6z"/>
</g>
<text transform="matrix(1 0 0 1 210.2403 196.3629)" style="&st0; &st5; &st6;">Cafe</text>
<image style="display:none;overflow:visible;" width="2136" height="2848" xlink:href="12859541.jpg"  transform="matrix(0.1131 0 0 0.1131 11 31)">
</image>
<path style="&st7;" d="M184,263.8c1.4-2.1,3.3-4.6,5.9-7.4c5.3-5.8,13-11,22-17.1c11.9-8.1,25.5-17.2,37.7-30.6
	c24.4-26.8,17.6-59.5-1.2-76.6c-15.8-14.4-41-18.8-61.7,3.8c-20.6,22.6-12.9,44.4,1.1,57.3c0.9,0.9,1.9,1.7,3.1,2.6
	c2.1,1.6,5.2,1.4,7-0.6c0.2-0.2,0.4-0.5,0.6-0.8c1.4-2.2,0.9-5.1-1.1-6.7c-1.1-0.8-2.1-1.7-3-2.6c-2.1-1.9-3.9-3.9-5.4-5.9
	c0.5,0.3,1,0.6,1.6,0.8c1.1,0.5,2.4-0.1,2.8-1.2c0.4-1.1-0.1-2.4-1.2-2.8c-4.7-1.9-6.6-7.8-7.1-14.3c0.6,0.8,1.8,1,2.7,0.5
	c1-0.6,1.4-1.9,0.8-2.9c-4.5-8.2,7.2-21.3,13.8-27.3c13.5-6.8,28.2-2.2,38.5,7.2c16.3,14.9,22.4,41.3,2.4,63.1
	c-11.1,12.1-23.1,20.8-33.6,28.4c-9.1,6.5-17.6,12.7-24.4,20.1c-1.3,1.4-2.6,3-3.6,4.6c-3.7-9.9-12.7-26.3-34.3-50.7l-4.8-5.7
	c-42.8-50.9-34.6-71.2-24.6-82.2c11.4-12.5,23.3-9.7,30.1-3.6c6.4,5.8,7.8,13.7,3.2,18.9c-1.4,2.3-1.2,6,0.4,7.4
	c2.5,2.1,5.3,1.8,7.6-0.8l0,0c8.8-10.1,4.9-24.5-4-32.6c-9.3-8.5-25.9-12.1-42.1,5.7c-20.6,22.5-13.2,53.9,22.6,95.8l4.8,5.5
	l4.9,5.7c17.4,20.1,27.7,35.3,30.8,45.2l3.8,5L184,263.8z"/>
<g style="&st0;">
	<path style="&st4;" d="M146.4,165.1l0-0.6l-0.6-0.3c-0.6-0.3-1.1-0.6-1.7-0.9c-0.8-0.4-1.7-0.9-2.6-1.2l-0.7-0.3l-0.4,0.7
		c-0.1,0.2-2.3,3.9-4.7,10.4c-2.3,1.4-5.2,2.3-8.9,2.9l0.7-6.2c2.6-21.9,6.1-36.8,10.5-44.3c4-1.5,6.8-3.7,8.4-6.5l0.3-0.5l-3.5-4.4
		l-0.5,0.1c-2.2,0.4-5.5,2-9.1,6.7c-2.1,0.4-4.6,0.5-7.8,0.5c-6.5,0-14.1-1.8-22.8-3.9c-11.6-2.8-24.8-6-40-6
		c-30.1,0-46.4,22.5-46.4,43.7c0,17.8,11.4,35.8,37,35.8c25.5,0,34.5-17,34.5-32.8c0-1.1,0-2.1-0.1-3.3c-0.2-2.2-2.1-4-4.3-4
		c-0.3,0-0.5,0-0.9,0.1c-2.1,0.4-3.6,2.3-3.5,4.5c0.1,1.1,0.1,2.2,0.1,3.3c0,2.4-0.2,4.6-0.6,6.6c-0.1-0.5-0.2-0.9-0.4-1.4
		c-0.3-0.9-1.4-1.4-2.3-1.1c-0.9,0.3-1.4,1.4-1.1,2.3c1.4,3.9-1.1,8.4-4.8,12.4c0.1-0.8-0.4-1.7-1.2-2c-0.9-0.3-2,0.2-2.3,1.1
		c-2.5,7.4-17.1,7.5-24.5,6.8c-9.5-3.6-14.8-11.8-16.5-20.9c0.6,0.3,1.3,0.3,1.9,0c1-0.5,1.3-1.7,0.8-2.7l-0.1-0.1
		c0,0-0.4-0.7-1-1.8c-0.3-0.6-0.6-1.3-0.9-2.1c-0.1-0.5-0.3-0.9-0.5-1.5c0.5,0.5,1.2,0.7,1.9,0.5c1.1-0.3,1.7-1.4,1.4-2.5l0-0.2
		c0,0-0.2-0.7-0.5-2c-0.1-0.6-0.3-1.4-0.4-2.3c-0.1-0.9-0.2-1.9-0.1-3c0-0.3,0-0.6,0-0.8c0-0.3,0.1-0.6,0.1-0.9
		c0.1-0.6,0.1-1.2,0.3-1.8c0.1-0.3,0.1-0.6,0.2-0.9c0.1-0.3,0.2-0.6,0.3-1c0.1-0.3,0.2-0.6,0.3-1c0.1-0.3,0.3-0.6,0.4-1
		c0.1-0.3,0.3-0.7,0.5-1c5.9-10.1,16.7-17.6,32.3-17.6c13.6,0,25.7,2.5,36.3,4.7c9.1,1.9,17.7,3.7,26,3.7c1.6,0,3.3-0.1,4.8-0.3
		c-4,7.8-9,22.6-11.9,49.5c-12.7,1-26,8.7-26,19.7c0,2.6,0.5,4.8,1.6,6.7l0.4,0.7l7.5-2.9l-0.3-0.8c-0.6-1.8-0.9-3.2-0.9-4.6
		c0-9.4,11.8-11.9,16.9-12.6c-7.2,54.8-24.3,61.2-36.6,61.2c-3.4,0-6.2-0.5-8.6-1.4c-0.3-0.2-0.7-0.4-1-0.6
		c-0.7-0.5-1.4-0.9-2.1-1.5c-0.6-0.5-1.3-1.1-1.8-1.7c-0.8-1.5-1.2-3-1.5-4.4c-0.3-1.4-0.4-2.6-0.4-3.4c0-0.8,0-1.3,0-1.3
		c0,0,0-0.1,0-0.1c0-0.6-0.5-1-1-1c-0.3,0-0.6,0.1-0.8,0.4c0-0.9,0.1-1.8,0.2-2.6c0.2-1.4,0.6-2.5,0.8-3.2c0.1-0.4,0.2-0.7,0.3-0.9
		c0.1-0.2,0.1-0.3,0.1-0.3l0,0c0,0,0-0.1,0.1-0.1c0.3-0.8-0.2-1.6-0.9-1.9c-0.2-0.1-0.4-0.1-0.7-0.1c1.7-3,4.5-4.9,7.9-4.9
		c2.2-0.4,4.4-2.6,4.3-4.4c-0.1-2.7-1.8-4.3-4.8-4.3c0,0,0,0,0,0c-11.1,0.3-17.8,10.7-17.8,20.7c0,10.5,7.1,22.7,27.1,22.7
		c25.4,0,40.5-22.1,46.2-67.6c2.6-0.4,5-1,7.2-1.9c-2.1,7.4-3.2,14.4-3.2,21.4v0.9h7.4v-0.9c0-10.6,1.5-19.5,2.4-24.8
		C145.3,172.3,146.3,167.1,146.4,165.1z M51.8,187.8c2.4-0.2,5.1-0.5,8.1-1.2c1.5-0.3,2.9-0.7,4.4-1.2c1.5-0.5,3-1,4.4-1.7
		c1.4-0.6,2.8-1.4,4.1-2.3c1.3-0.9,2.5-1.8,3.5-2.8c0.3-0.3,0.5-0.5,0.8-0.8c0.2-0.3,0.5-0.5,0.7-0.8c0.2-0.3,0.5-0.5,0.7-0.8
		c0.2-0.3,0.4-0.6,0.6-0.8c0.4-0.5,0.7-1.1,1-1.6c0.2-0.3,0.3-0.5,0.4-0.8c0.1-0.3,0.2-0.5,0.4-0.8c0.5-1,0.8-2.1,1.1-2.9
		c0.2-0.9,0.4-1.7,0.5-2.4c0.2-1.3,0.3-2.1,0.3-2.1l0-0.1c0.1-0.5,0.6-0.9,1.1-0.9c0.5,0.1,0.9,0.6,0.9,1.1c0,0,0,0,0,0
		c0,0-0.1,0.8-0.4,2.2c-0.2,0.7-0.4,1.6-0.7,2.5c-0.4,0.9-0.7,2-1.3,3.1c-0.1,0.3-0.3,0.6-0.4,0.9c-0.2,0.3-0.3,0.6-0.5,0.8
		c-0.3,0.6-0.7,1.2-1.2,1.7c-0.2,0.3-0.4,0.6-0.7,0.9c-0.2,0.3-0.5,0.5-0.7,0.8c-0.3,0.3-0.5,0.6-0.8,0.8c-0.3,0.3-0.6,0.5-0.8,0.8
		c-1.1,1-2.4,2-3.8,2.8c-1.4,0.8-2.8,1.6-4.3,2.2c-1.5,0.6-3,1.1-4.5,1.6c-1.5,0.4-3,0.8-4.5,1c-3,0.5-5.8,0.8-8.2,0.9
		c-4.8,0.2-8-0.2-8-0.2S47,188.2,51.8,187.8z M59.8,234.5c-0.2-0.4-0.4-0.9-0.6-1.4c-0.2-0.6-0.4-1.2-0.6-1.9
		c-0.2-0.7-0.4-1.5-0.6-2.3c-0.1-0.4-0.1-0.8-0.2-1.3c0-0.4-0.1-0.9-0.1-1.4c0-0.5,0-0.9,0-1.4c0-0.5,0.1-1,0.1-1.4
		c0.1-1,0.3-1.9,0.7-2.9c0.6-1.9,1.7-3.6,2.9-5.1c0.6-0.7,1.2-1.4,1.9-1.9c0.6-0.6,1.3-1.1,1.9-1.5c1.2-0.9,2.3-1.4,3.1-1.8
		c0.8-0.4,1.3-0.5,1.3-0.5l0,0c0.3-0.1,0.5,0,0.6,0.3c0.1,0.3,0,0.5-0.3,0.6c0,0,0,0,0,0c0,0-0.4,0.1-1.2,0.5
		c-0.8,0.3-1.9,0.9-3.1,1.6c-0.6,0.4-1.2,0.8-1.9,1.4c-0.6,0.5-1.3,1.1-1.9,1.8c-1.2,1.3-2.3,3-2.9,4.8c-0.4,0.9-0.6,1.8-0.7,2.8
		c-0.1,0.5-0.1,0.9-0.2,1.4c0,0.5,0,0.9,0,1.4c0,0.5,0,0.9,0.1,1.3c0.1,0.4,0.1,0.9,0.2,1.3c0.2,0.8,0.3,1.6,0.5,2.3
		c0.2,0.7,0.4,1.4,0.6,1.9C59.5,233.6,59.7,234.1,59.8,234.5c0.4,0.8,0.5,1.2,0.5,1.2S60.2,235.3,59.8,234.5z"/>
	<path style="&st4;" d="M314.6,190.5c-0.6-0.9-2.3-1.2-2.9-1.2h-0.6l-0.2,0.6c-2.1,5.3-4.4,8.7-7.4,10.9c4.4-12.8,4.3-26.9-0.3-33.7
		c-2.1-3.1-5.1-4.7-8.6-4.7c-9.4,0-14.5,8.5-16.3,16.8l-3.7-1l-0.2,0.8c-1.1,3.9-2,7.6-2.5,11.1c-6.6,16.8-11.6,23.5-17.7,23.7
		c-7-0.1-8-9.4-8-14.9c0-14.3,6.5-30.7,12.2-30.7c2.8,0,3,4.4,3,5.7c0,4.2-1.7,9.6-4.5,14.2l-0.5,0.8l6.6,3.7l0.4-0.8
		c2.8-5.2,4.5-11.5,4.5-16.9c0-8-3.4-12.8-9.2-12.8c-9.8,0-16.7,13.6-19.2,27.1l-0.2,0.5c-2,5.2-3.8,9.4-5.5,12.8
		c-0.3-5.9-2.9-12.5-5.4-18.8c-2.4-6.2-5-12.6-5.3-18.4c1.5-5,2.4-10.3,3-17.6l0.1-0.8l-6.7-1.3l-0.3,1.1c-1,3.4-2.2,7.5-2.2,12
		c0,4.5,0.2,7.5,0.7,10.3c-1.7,5.2-3.6,10.5-5.4,15.2c-0.7,2-1.4,3.9-2,5.5l0,0c-6,15.9-12,24-17.9,24c-6.6,0-7.5-8.6-7.5-13.8
		c0-1.9,0.2-3.9,0.5-6.3c9.4-2.1,20.5-12.9,20.5-23.1c0-5.2-3-8.5-7.9-8.5c-9.6,0-17.4,13.3-20.2,27.7l0,0
		c-6,16-10.5,24.1-13.3,24.1c-1,0-1.6-0.9-1.6-2.5c0-2.8,1.2-6.4,2.5-10.2c1.5-4.7,3.3-10,3.3-15.1c0-6.7-3.8-11.6-6.8-15.5
		c-0.8-1-1.5-2-2.2-2.9c1.4-6.6,2.1-13,2.3-19l0-0.8l-0.8-0.1c-1.9-0.3-4-0.7-5.6-1l-0.9-0.2l-0.2,0.9c-1.6,6.9-2.9,14.8-0.5,22
		c-4,18.7-9.4,37.6-14.1,49.5l-0.3,0.8l3.9,1.9l0.4-0.9c4.1-10.2,9.9-27.7,13.8-44.3c1.6,3.1,3.2,6.4,3.2,10.7c0,3.7-1.5,8-2.9,12.2
		c-1.5,4.3-3,8.8-3,12.9c0,7.5,4.2,8.6,6.6,8.6c6.9,0,11-6.4,15.3-16.8c0.9,11,5.8,17.2,13.8,17.2c6.5,0,11.6-5.3,15.8-12.5l0,0.5
		c-0.2,3.4,0.7,6.3,2.7,8.4c2.1,2.2,5.3,3.5,8.8,3.5c10,0,16.1-9.4,20.3-18.5c0.5,11.8,5.1,18.5,12.7,18.5c9.1,0,15.1-8.2,19.8-17.8
		c0.3,5.7,1.5,10.3,3.8,13.3c2.3,3,5.4,4.5,9.4,4.5c6.1,0,12.7-5.5,17.1-14.3c5.9-1.8,10.5-7,13.7-15.4
		C314.9,191.3,314.9,190.9,314.6,190.5z M197.3,167.3c1.3,0,1.5,1.9,1.5,3.5c0,5.4-4.4,12.9-12.8,17.5
		C188.5,176.5,193.4,167.3,197.3,167.3z M218.5,214.7c-3.3,0-4.7-2.7-4.7-5.3v-0.9l-7.2,0.3c2.9-5.2,5.4-11.2,7.4-16.9v0
		c1.9-5.1,3.7-9.8,5.1-14.2c0.9,4,2,7.6,3,11c1.8,6,3.3,11.1,3.3,16.1C225.4,210.2,222.4,214.7,218.5,214.7z M284,216.1
		c-1.5,0-2.7-0.5-3.7-1.7c-2.6-3.1-3.2-10.1-1.8-20.6c1.8,7.9,6.8,13,13.9,14C290.2,213,287,216.1,284,216.1z M294.4,202.8
		c-8.2-0.4-11.2-8.3-11.2-15.8c0-9.5,4.5-19.6,11.2-19.6c1.1,0,2,0.5,2.8,1.6C300.7,174.2,299.4,189.9,294.4,202.8z"/>
</g>
<path style="&st8;" d="M161.6,306.9l1.9,2.4c6.6,8.4,10.5,14.7,11.6,18.7c-0.8,1.9-1.1,3.6-0.6,5.1l0.1,0.3l2.7,0.3l0.1-0.2
	c0.6-0.9,1.2-2.6,0.8-5.4c0.6-0.8,1.4-1.8,2.5-2.9c2.2-2.2,5.4-4.2,9.1-6.5c4.9-3,10.5-6.4,15.7-11.6c10.3-10.3,8.2-23.6,0.9-30.8
	c-6.1-6.1-16.1-8.3-24.9,0.4c-8.7,8.7-6,17.6-0.6,23c0.4,0.4,0.8,0.7,1.2,1.1c0.8,0.7,2.1,0.6,2.8-0.1c0.1-0.1,0.2-0.2,0.3-0.3
	c0.6-0.9,0.4-2-0.3-2.7c-0.4-0.4-0.8-0.7-1.2-1.1c-0.8-0.8-1.5-1.6-2.1-2.5c0.2,0.1,0.4,0.2,0.6,0.3c0.4,0.2,1,0,1.2-0.4
	c0.2-0.4,0-1-0.4-1.2c-1.8-0.8-2.5-3.3-2.6-5.9c0.2,0.3,0.7,0.5,1.1,0.3c0.4-0.2,0.6-0.7,0.4-1.2c-1.7-3.4,3.3-8.4,6-10.7
	c4.5-2,9.1-1,12.8,1.5c-0.3,0.1-0.6,0.3-0.7,0.6c-0.2,0.5,0.1,1.1,0.6,1.2l0.1,0c0,0,0.3,0.1,0.9,0.3c0.3,0.1,0.6,0.3,1,0.4
	c0.2,0.1,0.4,0.2,0.7,0.3c-0.3,0-0.6,0.2-0.8,0.5c-0.3,0.5-0.1,1.1,0.4,1.3l0.1,0c0,0,0.3,0.2,0.9,0.5c0.3,0.2,0.6,0.4,0.9,0.6
	c0.3,0.3,0.7,0.6,1.1,1c0.1,0.1,0.2,0.2,0.3,0.3c0.1,0.1,0.2,0.2,0.3,0.3c0.2,0.2,0.4,0.5,0.5,0.7c0.1,0.1,0.2,0.3,0.3,0.4
	c0.1,0.1,0.2,0.3,0.2,0.4c0.1,0.1,0.2,0.3,0.2,0.4c0.1,0.2,0.1,0.3,0.2,0.5c0.1,0.2,0.1,0.3,0.2,0.5c1.5,5.5,0.3,11.7-5,17.1
	c-4.7,4.7-9.6,7.9-14,10.8c-3.8,2.5-7.3,4.8-10.2,7.6c-0.6,0.6-1.1,1.2-1.5,1.8c-1.3-4.1-4.6-10.8-12.9-21l-1.8-2.4
	c-16.3-21.2-12.6-29.3-8.4-33.5c1.1-1.1,2.3-1.9,3.4-2.5c0.2,0,0.4-0.1,0.5-0.1c0.4-0.1,0.8-0.2,1.2-0.2c0.4,0,0.8,0,1.2,0
	c0.8,0.3,1.5,0.6,2,1c0.6,0.4,1,0.8,1.3,1c0.3,0.3,0.4,0.4,0.4,0.4c0,0,0,0,0,0c0.2,0.2,0.5,0.2,0.7,0c0.1-0.1,0.1-0.2,0.1-0.4
	c0.3,0.3,0.6,0.6,0.8,1c0.4,0.5,0.7,1,0.8,1.4c0.1,0.2,0.1,0.3,0.2,0.4c0,0.1,0.1,0.1,0.1,0.1l0,0c0,0,0,0,0,0.1
	c0.2,0.4,0.6,0.5,1,0.3c0.1,0,0.2-0.1,0.2-0.2c0.4,1.6,0.1,3.2-1,4.4c-0.6,0.9-0.6,2.4,0,3c1,0.9,2.1,0.8,3.1-0.2l0,0
	c3.7-3.9,2.4-9.7-1-13.2c-3.6-3.6-10.2-5.3-17,1.5c-8.7,8.7-6.3,21.4,7.3,38.9L161.6,306.9z M183.2,277.1c-0.8,0.9-1.6,1.9-2.4,3.2
	c-0.4,0.6-0.8,1.2-1.1,1.9c-0.3,0.7-0.7,1.4-0.9,2.1c-0.3,0.7-0.5,1.4-0.6,2.2c-0.1,0.7-0.2,1.5-0.2,2.2c0,0.2,0,0.3,0,0.5
	c0,0.2,0,0.3,0,0.5c0,0.2,0,0.3,0,0.5c0,0.2,0.1,0.3,0.1,0.5c0,0.3,0.1,0.6,0.2,0.9c0,0.1,0.1,0.3,0.1,0.4c0.1,0.1,0.1,0.3,0.2,0.4
	c0.2,0.5,0.4,1,0.6,1.4c0.2,0.4,0.4,0.7,0.6,1c0.4,0.5,0.6,0.8,0.6,0.8l0,0c0.2,0.2,0.1,0.5-0.1,0.7c-0.2,0.2-0.5,0.1-0.7-0.1
	c0,0,0,0,0,0c0,0-0.2-0.3-0.6-0.9c-0.2-0.3-0.4-0.7-0.6-1.1c-0.2-0.4-0.5-0.9-0.6-1.5c0-0.1-0.1-0.3-0.1-0.4c0-0.2-0.1-0.3-0.1-0.5
	c-0.1-0.3-0.2-0.6-0.2-1c0-0.2,0-0.3-0.1-0.5c0-0.2,0-0.4,0-0.5c0-0.2,0-0.4,0-0.5c0-0.2,0-0.4,0-0.6c0-0.7,0.2-1.5,0.3-2.3
	c0.2-0.7,0.4-1.5,0.7-2.2c0.3-0.7,0.7-1.4,1-2.1c0.4-0.7,0.8-1.3,1.2-1.9c0.8-1.2,1.7-2.2,2.5-3.1c1.6-1.7,2.8-2.7,2.8-2.7
	S184.7,275.4,183.2,277.1z M164.4,263.9c0.2,0.1,0.4,0.2,0.7,0.3c0.3,0.1,0.6,0.3,0.9,0.4c0.3,0.2,0.6,0.4,1,0.6
	c0.2,0.1,0.3,0.2,0.5,0.4c0.2,0.1,0.3,0.3,0.5,0.4c0.2,0.2,0.3,0.3,0.5,0.5c0.2,0.2,0.3,0.4,0.5,0.5c0.3,0.4,0.6,0.8,0.8,1.2
	c0.4,0.9,0.7,1.8,0.8,2.7c0,0.5,0,0.9,0,1.3c0,0.4-0.1,0.8-0.1,1.2c-0.1,0.7-0.3,1.3-0.5,1.7c-0.1,0.4-0.3,0.6-0.3,0.6l0,0
	c-0.1,0.1-0.2,0.2-0.3,0.1c-0.1-0.1-0.2-0.2-0.1-0.3c0,0,0,0,0,0c0,0,0.1-0.2,0.3-0.6c0.1-0.4,0.3-0.9,0.5-1.6
	c0.1-0.3,0.1-0.7,0.2-1.1c0-0.4,0-0.8,0-1.3c-0.1-0.9-0.2-1.8-0.6-2.6c-0.2-0.4-0.4-0.8-0.7-1.2c-0.1-0.2-0.3-0.4-0.4-0.5
	c-0.2-0.2-0.3-0.3-0.5-0.5c-0.2-0.1-0.3-0.3-0.5-0.4c-0.2-0.1-0.3-0.3-0.5-0.4c-0.3-0.2-0.6-0.5-1-0.6c-0.3-0.2-0.6-0.3-0.9-0.5
	C164.9,264.1,164.6,264,164.4,263.9c-0.4-0.1-0.6-0.2-0.6-0.2S164.1,263.8,164.4,263.9z"/>
</svg>
