<?xml version="1.0" encoding="utf-8"?>
<!-- Generator: Adobe Illustrator 18.0.0, SVG Export Plug-In . SVG Version: 6.00 Build 0)  -->
<!DOCTYPE svg PUBLIC "-//W3C//DTD SVG 1.1//EN" "http://www.w3.org/Graphics/SVG/1.1/DTD/svg11.dtd">
<svg version="1.1" xmlns="http://www.w3.org/2000/svg" xmlns:xlink="http://www.w3.org/1999/xlink" x="0px" y="0px"
	 viewBox="0 0 31.3 31.8" style="enable-background:new 0 0 31.3 31.8;" xml:space="preserve">
<style type="text/css">
	.st0{fill:#5FBE98;}
	.st1{fill:#FFFFFF;}
</style>
<g id="Layer_2">
	<circle class="st0" cx="15.6" cy="15.9" r="14.1"/>
	<path class="st1" d="M13.9,21.2c0,0-1.1,6-2.7,6.4c-1.6,0.5-0.7-3.7-0.7-3.7l1.6-6.9c0,0-1.8-4,1.6-5.1c1.9-0.6,1.9,2.4,1.9,2.4
		s-0.7,3.3-1,3.8c-0.3,0.5,0.6,2.8,2.4,2.2c1.8-0.6,3.3-1.8,3.4-4.4c0.1-2.6,0.5-4.3-2.2-6c-2.7-1.8-7.1-0.1-7.9,1.7
		c-0.8,1.8-1.8,3.4,0,6.2l-0.5,2c0,0-3.3-1-2.8-6.4c0.5-5.5,6.6-6.7,8.2-6.7c1.6,0,6.7,0.3,8.2,5.9C25,18.3,19.4,25.5,13.9,21.2z"/>
</g>
<g id="Layer_3">
</g>
</svg>
