<?xml version="1.0" encoding="utf-8"?>
<!-- Generator: Adobe Illustrator 18.0.0, SVG Export Plug-In . SVG Version: 6.00 Build 0)  -->
<!DOCTYPE svg PUBLIC "-//W3C//DTD SVG 1.1//EN" "http://www.w3.org/Graphics/SVG/1.1/DTD/svg11.dtd">
<svg version="1.1" xmlns="http://www.w3.org/2000/svg" xmlns:xlink="http://www.w3.org/1999/xlink" x="0px" y="0px"
	 viewBox="0 0 31.3 31.8" style="enable-background:new 0 0 31.3 31.8;" xml:space="preserve">
<style type="text/css">
	.st0{fill:#5FBE98;}
	.st1{fill:#FFFFFF;}
</style>
<g id="Layer_2">
	<circle class="st0" cx="15.8" cy="16" r="14.1"/>
</g>
<g id="Layer_3">
	<g>
		<path class="st1" d="M20.7,22.6h-6.8c0,0-1.8-0.2-1.8-2.2s0-4.7,0-4.7h8.1c0,0,1-0.1,1-1.8s-1.1-1.7-1.1-1.7h-7.9V8.1
			c0,0-0.5-1.2-1.8-1.2S8.5,7.8,8.5,7.8v13.3c0,0,0,4.8,4.8,4.8s7.5,0,7.5,0s1.3,0,1.3-1.5S20.7,22.6,20.7,22.6z"/>
		<path class="st1" d="M20.8,25.8c0,0-2.7,0-7.5,0s-4.8-4.8-4.8-4.8V7.8c0,0,0.7-0.9,1.9-0.9s1.8,1.2,1.8,1.2v4.3h7.9
			c0,0,1.1,0,1.1,1.7s-1,1.8-1,1.8h-8.1c0,0,0,2.8,0,4.7s1.8,2.2,1.8,2.2h6.8c0,0,1.3,0.3,1.3,1.8S20.8,25.8,20.8,25.8z"/>
	</g>
</g>
</svg>
