<?xml version="1.0" encoding="utf-8"?>
<!-- Generator: Adobe Illustrator 19.0.0, SVG Export Plug-In . SVG Version: 6.00 Build 0)  -->
<svg version="1.1" id="robinsonLogo" xmlns="http://www.w3.org/2000/svg" xmlns:xlink="http://www.w3.org/1999/xlink" x="0px"
	 y="0px" viewBox="-220 312.2 170.6 169.8" style="enable-background:new -220 312.2 170.6 169.8;" xml:space="preserve">
<style type="text/css">
	.st0{fill:#FFFFFF;}
</style>
<g id="bird">
	<g>
		<path class="st0" d="M-58.4,427.6c-1.6-2.9-35.8-13.2-36.2-15c-0.4-1,4.8-0.1,4.8-0.1s1.9-0.5-8.3-4.6c-6.7-2.7-10.3-4.9-12.1-6.1
			c-0.9-0.6-1.3-1-1.3-1c-0.9-1.1-2.1-2.2-3.4-3.4c-4.6-3.9-11.5-8.2-17.4-11.5c-7.6-4.3-7.9-5.4-7.9-5.4s-1.4-2.3-5-5.4
			c-1.7-1.4-3.8-3-6.4-4.5c-3-1.8-5.1-3.4-6.7-5c-3-3-4.3-6-5.7-9.9c-1.4-3.8-3.9-8.1-8.1-10.9c-2.5-1.6-5.6-2.7-9.5-2.7
			c-7.5,0-10.5,2.8-11.9,4.3c-0.5,0.5-0.8,0.9-1,0.9c-0.7,0-1,0.6-1,0.6c-10.2-0.5-11.7,2.4-11.7,2.4c0.1,0.4,1,0.2,1,0.2
			c3.6,1.8,7.4,2.2,8.4,2.4c1.1,0.2,1.2,0.6,1.2,0.6c4.5,1.4,4.4,4.7,6,7.1c3.3,3.9,2.7,5.6,2.7,5.6l0.1,6.6v4.3
			c1.2,15.6,6.3,24.4,9.6,28.5c1.1,1.3,2,2.2,2.5,2.7c0.4,0.3,0.6,0.5,0.6,0.5s0.9,0.5,2.5,1.6l1.4,1.2l0.1-0.1
			c0.6,0.5,1.4,1,2.2,1.6c4.7,4.4,14.4,7.1,14.4,7.1s1.8,1,1.8,4c0,1.7,0.3,2.9,0.7,3.7c0.8,1.6,1.9,2,1.6,2.1
			c-0.5,0.2-0.4,2.4-0.4,2.4l-5.7,11.1l-2.2,4.4l-0.2-0.1c0,0-4.7-0.7-8-2.5h-1.6c0,0,0,0.5,1.4,0.5c0.9,0.2,0.6,1.1,0.6,1.1
			s0.8,0.9,3,1.3l-8.6,0.2c0,0-3.9-0.2-4.2,0.9c0,0,1.5-0.7,3-0.3c0,0,0.8,1.7,2.4,0.8c1.6-0.8,2.8,0.2,3.9,0.2
			c1.1,0.1,2.2-0.9,4.3-0.3c-2.6,1.4-3.7,1.3-3.7,1.3s-2.3,0.5-2.6,2.1c0,0,1.3-1.4,2.2-0.8c0.4,0.9,1.6,0.4,1.6,0.4
			s5.4-2.5,6.5-2.5c1.1-0.1,1.5-0.1,1.9-0.4c0.4-0.3,6.8,0.2,7.2,0.2s2.2-0.7,2-2c-0.2-1.3,4.5-1,4,1.1v0.2c0,0,0.4-0.5-0.1-1.7
			c-0.5-1.2-4.1-1.5-5.8,0.2c-1.1,1.3-4.6,1-5,0.8c-0.2-0.1-0.7-0.1-1.2-0.2c1.6-2,7.1-9.3,10.3-14.8c0.1-0.1,0.1-0.2,0.2-0.4
			c0.2-0.3,0.4-0.7,0.6-1c3.7-6.4,0.7-10.3,0.7-10.3c6,0,10-0.5,12.6-1.1c2.1-0.5,3.3-1,4.1-1.5c0.7-0.5,0.9-0.8,0.9-0.8
			s6.6,0.9,7.8-0.2c0.9-0.7,8.6-0.7,13.4-0.4c2.2,0.1,3.8,0.3,3.9,0.4c0.2,0.4,7.3,0.9,9.2,0.8c1.8-0.1,25.7,7.6,25.7,7.6
			S-56.7,430.5-58.4,427.6z"/>
	</g>
</g>
<g id="left_1_">
	<g id="left">
		<rect x="-220" y="313.7" class="st0" width="3" height="167.6"/>
	</g>
</g>
<g id="right_1_">
	<g id="right">
		<rect x="-52.4" y="313.7" class="st0" width="3" height="167.6"/>
	</g>
</g>
<g id="top_1_">
	<g id="top">
		<rect x="-220" y="312.2" class="st0" width="170.6" height="3"/>
	</g>
</g>
<g id="bottom_1_">
	<g id="bottom">
		<rect x="-220" y="479" class="st0" width="170.6" height="3"/>
	</g>
</g>
</svg>
