<?xml version="1.0" encoding="utf-8"?>
<!-- Generator: Adobe Illustrator 18.0.0, SVG Export Plug-In . SVG Version: 6.00 Build 0)  -->
<!DOCTYPE svg PUBLIC "-//W3C//DTD SVG 1.1//EN" "http://www.w3.org/Graphics/SVG/1.1/DTD/svg11.dtd">
<svg version="1.1" id="robinsonLogo" xmlns="http://www.w3.org/2000/svg" xmlns:xlink="http://www.w3.org/1999/xlink" x="0px"
	 y="0px" viewBox="0 0 792 612" enable-background="new 0 0 792 612" xml:space="preserve">
<g id="bird">
	<g>
		<path fill="#FFFFFF" d="M665.8,415.9c-5.8-10.5-129-47.6-130.5-54.1c-1.4-3.6,17.3-0.4,17.3-0.4s6.8-1.8-29.9-16.6
			c-24.1-9.7-37.1-17.7-43.6-22c-3.2-2.2-4.7-3.6-4.7-3.6c-3.2-4-7.6-7.9-12.3-12.3c-16.6-14.1-41.4-29.6-62.7-41.4
			c-27.4-15.5-28.5-19.5-28.5-19.5s-5-8.3-18-19.5c-6.1-5-13.7-10.8-23.1-16.2c-10.8-6.5-18.4-12.3-24.1-18
			c-10.8-10.8-15.5-21.6-20.5-35.7c-5-13.7-14.1-29.2-29.2-39.3c-9-5.8-20.2-9.7-34.2-9.7c-27,0-37.8,10.1-42.9,15.5
			c-1.8,1.8-2.9,3.2-3.6,3.2c-2.5,0-3.6,2.2-3.6,2.2c-36.8-1.8-42.2,8.7-42.2,8.7c0.4,1.4,3.6,0.7,3.6,0.7c13,6.5,26.7,7.9,30.3,8.7
			c4,0.7,4.3,2.2,4.3,2.2c16.2,5,15.9,16.9,21.6,25.6c11.9,14.1,9.7,20.2,9.7,20.2l0.4,23.8v15.5c4.3,56.2,22.7,87.9,34.6,102.7
			c4,4.7,7.2,7.9,9,9.7c1.4,1.1,2.2,1.8,2.2,1.8s3.2,1.8,9,5.8l5,4.3l0.4-0.4c2.2,1.8,5,3.6,7.9,5.8c16.9,15.9,51.9,25.6,51.9,25.6
			s6.5,3.6,6.5,14.4c0,6.1,1.1,10.5,2.5,13.3c2.9,5.8,6.8,7.2,5.8,7.6c-1.8,0.7-1.4,8.7-1.4,8.7l-20.5,40l-7.9,15.9l-0.7-0.4
			c0,0-16.9-2.5-28.8-9H269c0,0,0,1.8,5,1.8c3.2,0.7,2.2,4,2.2,4s2.9,3.2,10.8,4.7l-31,0.7c0,0-14.1-0.7-15.1,3.2
			c0,0,5.4-2.5,10.8-1.1c0,0,2.9,6.1,8.7,2.9c5.8-2.9,10.1,0.7,14.1,0.7c4,0.4,7.9-3.2,15.5-1.1c-9.4,5-13.3,4.7-13.3,4.7
			s-8.3,1.8-9.4,7.6c0,0,4.7-5,7.9-2.9c1.4,3.2,5.8,1.4,5.8,1.4s19.5-9,23.4-9c4-0.4,5.4-0.4,6.8-1.4c1.4-1.1,24.5,0.7,26,0.7
			s7.9-2.5,7.2-7.2c-0.7-4.7,16.2-3.6,14.4,4v0.7c0,0,1.4-1.8-0.4-6.1c-1.8-4.3-14.8-5.4-20.9,0.7c-4,4.7-16.6,3.6-18,2.9
			c-0.7-0.4-2.5-0.4-4.3-0.7c5.8-7.2,25.6-33.5,37.1-53.3c0.4-0.4,0.4-0.7,0.7-1.4c0.7-1.1,1.4-2.5,2.2-3.6
			c13.3-23.1,2.5-37.1,2.5-37.1c21.6,0,36-1.8,45.4-4c7.6-1.8,11.9-3.6,14.8-5.4c2.5-1.8,3.2-2.9,3.2-2.9s23.8,3.2,28.1-0.7
			c3.2-2.5,31-2.5,48.3-1.4c7.9,0.4,13.7,1.1,14.1,1.4c0.7,1.4,26.3,3.2,33.2,2.9c6.5-0.4,92.6,27.4,92.6,27.4
			S671.9,426.4,665.8,415.9z"/>
	</g>
</g>
</svg>
