<?xml version="1.0" encoding="utf-8"?>
<!-- Generator: Adobe Illustrator 18.0.0, SVG Export Plug-In . SVG Version: 6.00 Build 0)  -->
<!DOCTYPE svg PUBLIC "-//W3C//DTD SVG 1.1//EN" "http://www.w3.org/Graphics/SVG/1.1/DTD/svg11.dtd">
<svg version="1.1" id="Capa_1" xmlns="http://www.w3.org/2000/svg" xmlns:xlink="http://www.w3.org/1999/xlink" x="0px" y="0px"
	 viewBox="0 0 505.3 505.3" enable-background="new 0 0 505.3 505.3" xml:space="preserve">
<g>
	<path fill="#FFFFFF" d="M318.6,34.2c0,0-12.4,0-24.7,36.2c0,0-45,7.9-36.2,63.6c-14.1,48.6-68.9,30-98,92.7
		c-29.1,62.7-15,117.4-5.3,140.4c1.1,11.9-27.7,22.3-12.1,65.8C162,488,285.9,475.3,289.4,446c0,0-83.6,17.8-119.6-12.8
		c0,0-14.6-14.1-5.7-33.5c4.4-7.9,88.7,11.9,124.5-4c0,0,9.3-17.7-19.9-17.7c0,0,4.4-9.3,7.9-19.9c3.5-10.6,4.4,40.2,38.8,40.2
		c0,0,19.4,2.2,15.5-15.5c0,0,14.1-16.8-12.4-16.8c0,0-10.3-35-2.1-92.7c1.2-29.4,30.6-27.1,30.6-70s-8.8-57.7-8.8-57.7
		s24-8.1,29.1-32.2c0.7-3.1,0.7-13.5-6.8-13.7c0,0-12.4-25.9-36.5-25.9C324.2,73.9,328.3,39.8,318.6,34.2z"/>
</g>
<rect x="19.7" y="19.7" fill="none" stroke="#FFFFFF" stroke-width="9" stroke-miterlimit="10" width="465.8" height="465.8"/>
</svg>
