<?xml version="1.0" encoding="utf-8"?>
<!-- Generator: Adobe Illustrator 19.0.0, SVG Export Plug-In . SVG Version: 6.00 Build 0)  -->
<svg version="1.1" id="Layer_1" xmlns="http://www.w3.org/2000/svg" xmlns:xlink="http://www.w3.org/1999/xlink" x="0px" y="0px"
	 viewBox="0 0 75 74.9" style="enable-background:new 0 0 75 74.9;" xml:space="preserve">
<style type="text/css">
	.st0{fill:#FFFFFF;}
</style>
<g>
	<path class="st0" d="M5.8,43.4v-6.6l21.6-12.6v7l-16.6,8.7v0.1l16.6,8.8v7.1L5.8,43.4z"/>
	<path class="st0" d="M41.2,14.1c0.1-0.3,0.2-0.5,0.5-0.5h4.4c0.2,0,0.4,0.3,0.4,0.5l-5.8,42.3c-0.1,0.3-0.3,0.5-0.6,0.5h-4.3
		c-0.3,0-0.4-0.3-0.3-0.6L41.2,14.1z"/>
	<path class="st0" d="M70.4,36.8v6.6L48.8,55.9v-7.1l16.6-8.8v-0.1l-16.6-8.7v-7L70.4,36.8z"/>
</g>
</svg>
