<?xml version="1.0" encoding="utf-8"?>
<!-- Generator: Adobe Illustrator 19.0.0, SVG Export Plug-In . SVG Version: 6.00 Build 0)  -->
<svg version="1.1" id="Layer_1" xmlns="http://www.w3.org/2000/svg" xmlns:xlink="http://www.w3.org/1999/xlink" x="0px" y="0px"
	 viewBox="0 0 75 74.9" style="enable-background:new 0 0 75 74.9;" xml:space="preserve">
<style type="text/css">
	.st0{fill:#FFFFFF;}
</style>
<g>
	<path id="XMLID_3_" class="st0" d="M18.6,42.1v12c0,10.1,8.2,18.2,18.2,18.2C46.9,72.3,55,64.1,55,54V42.3
		C50.4,44.7,37.7,49.2,18.6,42.1z"/>
	<path class="st0" d="M39.1,16.6c0-3.1,4.1-3.3,4.1-3.3C55.7,13.4,54,2.6,54,2.6h-3.7c0,8.9-8,8-8,8c-6.7,0-8.1,3.7-8.3,6.2
		c-8.8,1.3-15.5,8.9-15.5,18v5.1c5.9,2.4,21.8,7.4,36.4,0v-5.1C55,25.4,48.1,17.8,39.1,16.6z M40,33.9c0,1.7-1.4,3.2-3.2,3.2
		c-1.7,0-3.2-1.4-3.2-3.2v-8.6c0-1.7,1.4-3.2,3.2-3.2c1.7,0,3.2,1.4,3.2,3.2V33.9z"/>
</g>
</svg>
