<?xml version="1.0" encoding="utf-8"?>
<!-- Generator: Adobe Illustrator 19.0.0, SVG Export Plug-In . SVG Version: 6.00 Build 0)  -->
<svg version="1.1" id="Layer_1" xmlns="http://www.w3.org/2000/svg" xmlns:xlink="http://www.w3.org/1999/xlink" x="0px" y="0px"
	 viewBox="0 0 75 74.9" style="enable-background:new 0 0 75 74.9;" xml:space="preserve">
<style type="text/css">
	.st0{fill:#FFFFFF;}
</style>
<g>
	<path class="st0" d="M49,16c-9,4.4-14.9,4.1-24.2-0.1C8.6,16-0.7,59.6,11.4,59.6c10.2,0,11.6-12.8,25.7-12.8
		c11.3,0,18,12.6,25.6,12.6C74.8,59.5,62.5,16,49,16z M24.9,37.8c-4.5,0-8.1-3.6-8.1-8.1c0-4.5,3.6-8.1,8.1-8.1
		c4.5,0,8.1,3.6,8.1,8.1C33.1,34.1,29.4,37.8,24.9,37.8z M45.3,30.5c-1.3-0.4-2.1-1.8-1.6-3.2c0.4-1.3,1.8-2.1,3.2-1.6
		c1.3,0.4,2.1,1.8,1.7,3.1C48,30.2,46.6,30.9,45.3,30.5z M58.1,32.6c-0.4,1.3-1.8,2.1-3.2,1.7c-1.3-0.4-2.1-1.8-1.7-3.2
		c0.4-1.3,1.8-2.1,3.2-1.7C57.7,29.9,58.5,31.3,58.1,32.6z M54.8,26.7c-0.4,1.3-1.8,2.1-3.2,1.7c-1.3-0.4-2.1-1.8-1.7-3.2
		c0.4-1.3,1.8-2.1,3.2-1.7C54.5,24,55.2,25.4,54.8,26.7z M51.4,34.5c-0.4,1.3-1.8,2.1-3.2,1.7c-1.3-0.4-2.1-1.8-1.7-3.2
		c0.4-1.3,1.8-2.1,3.2-1.7C51.1,31.8,51.9,33.2,51.4,34.5z M29,29.8c0,2.3-1.9,4.2-4.2,4.2c-2.3,0-4.2-1.9-4.2-4.2
		c0-2.3,1.9-4.2,4.2-4.2C27.2,25.6,29,27.5,29,29.8z"/>
</g>
</svg>
