<?xml version="1.0" encoding="utf-8"?>
<!-- Generator: Adobe Illustrator 18.0.0, SVG Export Plug-In . SVG Version: 6.00 Build 0)  -->
<!DOCTYPE svg PUBLIC "-//W3C//DTD SVG 1.1//EN" "http://www.w3.org/Graphics/SVG/1.1/DTD/svg11.dtd">
<svg version="1.1" id="Layer_1" xmlns="http://www.w3.org/2000/svg" xmlns:xlink="http://www.w3.org/1999/xlink" x="0px" y="0px"
	 viewBox="0 0 523.5 456" enable-background="new 0 0 523.5 456" xml:space="preserve">
<g>
	<path fill="#FFFFFF" d="M263.9,77.5c17.3-17,36.2-31.2,56.7-43.3c49.8-29.4,120.8-16.1,154.1,16c21.2,20.3,31.8,45.4,35.8,74
		c6.2,44.7-8.7,82.8-35.4,117.6c-15.4,20.1-33.9,37.1-52,54.6c-48.5,46.7-97,93.4-145.5,140.1c-9.2,8.9-18.2,8.9-27.5-0.1
		c-55.7-53.7-111.2-107.5-167-161c-19.2-18.4-35.9-38.5-48.7-61.7c-20-36.4-23.8-74.9-11.6-114.5c10.7-34.8,33.5-59.3,67.8-71.6
		c40.8-14.6,81-14.3,119.4,8.4c18.4,10.9,35.4,23.7,50.8,38.6C261.7,75.5,262.7,76.4,263.9,77.5z"/>
</g>
</svg>
