<?xml version="1.0" encoding="utf-8"?>
<!-- Generator: Adobe Illustrator 18.0.0, SVG Export Plug-In . SVG Version: 6.00 Build 0)  -->
<!DOCTYPE svg PUBLIC "-//W3C//DTD SVG 1.1//EN" "http://www.w3.org/Graphics/SVG/1.1/DTD/svg11.dtd">
<svg version="1.1" id="Layer_1" xmlns="http://www.w3.org/2000/svg" xmlns:xlink="http://www.w3.org/1999/xlink" x="0px" y="0px"
	 viewBox="333.3 267 134.2 39.8" enable-background="new 333.3 267 134.2 39.8" xml:space="preserve">
<g id="Layer_1_1_">
	<g>
		<path fill="#787878" d="M375,293.7c-0.4-3.2-0.9-6.2-1.5-9.4c-0.2,0-0.3,0-0.4,0h-1v9.3h-1.9v-20.6h3.1c2.4,0,3.6,1,3.6,3.7v4.1
			c0,1.5-0.5,2.5-1.5,3c0.7,3.3,1.2,6.6,1.7,9.8L375,293.7L375,293.7z M375,277c0-1.5-0.3-2-1.6-2h-1.2v7.6h1.3
			c1.2,0,1.6-0.5,1.6-1.7V277z"/>
		<path fill="#787878" d="M378.3,281c0-2,0.9-3.1,2.8-3.1c1.9,0,2.8,1.1,2.8,3.1v9.8c0,2-1,3.1-2.8,3.1c-1.9,0-2.8-1.1-2.8-3.1V281z
			 M382.4,281.1c0-0.9-0.2-1.4-1.2-1.4s-1.2,0.5-1.2,1.4v9.7c0,0.9,0.2,1.3,1.2,1.3c0.9,0,1.2-0.5,1.2-1.4V281.1z"/>
		<path fill="#787878" d="M385.7,293.7v-20.6h1.7v5.9c0.4-0.6,1-1,1.9-1c1.6,0,2.2,0.8,2.2,2.8v9.9c0,2.2-0.7,3.1-2.5,3.1
			c-1,0-1.7,0.1-2.1-0.7c-0.1,0.4-0.1,0.1-0.3,0.5L385.7,293.7L385.7,293.7z M389.9,280.9c0-0.8-0.4-1.2-1.1-1.2
			c-0.6,0-1.1,0.3-1.3,1V291c0.2,0.7,0.7,1,1.3,1c0.8,0,1.1-0.3,1.1-1.3V280.9z"/>
		<path fill="#787878" d="M393.4,276.2v-3.1h1.7v3.1H393.4z M393.4,293.7v-15.5h1.7v15.5H393.4z"/>
		<path fill="#787878" d="M401.1,293.7v-12.8c0-0.9-0.3-1.3-1-1.3c-0.5,0-1,0.3-1.3,1v13.1H397v-15.5h1.5c0.1,0.4,0.1,0.8,0.1,1.2
			c0.5-0.9,1.3-1.4,2.2-1.4c1.4,0,2,0.9,2,2.8v12.9H401.1z"/>
		<path fill="#787878" d="M408.2,289.2c0-0.7-0.1-1-0.7-1.8c-0.7-0.8-1.7-1.6-2.3-2.3c-0.7-0.7-0.8-1.3-0.8-2.5v-1.6
			c0-2.1,1-3,2.8-3c2.1,0,2.8,0.9,2.8,3v2.5h-1.6v-2.5c0-0.8-0.5-1.3-1.1-1.3c-0.7,0-1.1,0.4-1.1,1.3v1.8c0,0.7,0.1,1,0.7,1.6
			c0.7,0.7,1.6,1.4,2.2,2.1c0.8,0.9,1,1.6,1,3v1.7c0,2-1,2.8-2.9,2.8c-1.8,0-2.7-1-2.7-2.9v-2.5h1.6v2.5c0,0.8,0.5,1.3,1.2,1.3
			c0.7,0,1.1-0.4,1.1-1.3L408.2,289.2L408.2,289.2z"/>
		<path fill="#787878" d="M411.4,281c0-2,0.9-3.1,2.8-3.1c1.9,0,2.8,1.1,2.8,3.1v9.8c0,2-1,3.1-2.8,3.1c-1.9,0-2.8-1.1-2.8-3.1V281z
			 M415.4,281.1c0-0.9-0.2-1.4-1.2-1.4c-0.9,0-1.2,0.5-1.2,1.4v9.7c0,0.9,0.2,1.3,1.2,1.3c0.9,0,1.2-0.5,1.2-1.4V281.1z"/>
		<path fill="#787878" d="M422.9,293.7v-12.8c0-0.9-0.3-1.3-1-1.3c-0.5,0-1,0.3-1.3,1v13.1h-1.7v-15.5h1.5c0.1,0.4,0.1,0.8,0.1,1.2
			c0.5-0.9,1.3-1.4,2.2-1.4c1.4,0,2,0.9,2,2.8v12.9H422.9z"/>
	</g>
	<g>
		<path fill="#BCBEC0" d="M404.3,304.4v-9h1.4c1,0,1.4,0.6,1.4,1.5v5.9c0,1-0.5,1.5-1.4,1.5H404.3z M406.3,297
			c0-0.4-0.2-0.7-0.6-0.7h-0.6v7.3h0.6c0.4,0,0.6-0.2,0.6-0.7V297z"/>
		<path fill="#BCBEC0" d="M409.5,301.6h0.7v1.5c0,0.9-0.4,1.4-1.2,1.4c-0.8,0-1.2-0.5-1.2-1.4v-4.2c0-0.9,0.4-1.4,1.2-1.4
			c0.8,0,1.2,0.5,1.2,1.4v2.2h-1.7v2c0,0.4,0.2,0.6,0.5,0.6c0.3,0,0.5-0.2,0.5-0.6V301.6z M409.5,298.9c0-0.4-0.2-0.6-0.5-0.6
			c-0.3,0-0.5,0.2-0.5,0.6v1.6h1V298.9z"/>
		<path fill="#BCBEC0" d="M412.5,302.4c0-0.3-0.1-0.4-0.3-0.8c-0.3-0.4-0.7-0.7-1-1c-0.3-0.3-0.4-0.6-0.4-1.1v-0.7
			c0-0.9,0.4-1.3,1.2-1.3c0.9,0,1.2,0.4,1.2,1.3v1.1h-0.7v-1.1c0-0.3-0.2-0.5-0.5-0.5c-0.3,0-0.5,0.2-0.5,0.5v0.8
			c0,0.3,0.1,0.4,0.3,0.7c0.3,0.3,0.7,0.6,1,0.9c0.3,0.4,0.4,0.7,0.4,1.3v0.7c0,0.8-0.4,1.2-1.3,1.2c-0.8,0-1.2-0.4-1.2-1.3v-1.1
			h0.7v1.1c0,0.3,0.2,0.5,0.5,0.5c0.3,0,0.5-0.2,0.5-0.5V302.4z"/>
		<path fill="#BCBEC0" d="M414,296.8v-1.4h0.7v1.4H414z M414,304.4v-6.7h0.7v6.7H414z"/>
		<path fill="#BCBEC0" d="M417.3,303.6c-0.2,0.3-0.5,0.4-0.8,0.4c-0.7,0-1-0.4-1-1.2v-4c0-0.9,0.3-1.3,1-1.3c0.5,0,0.7,0.2,0.9,0.6
			c0-0.2,0-0.4,0-0.5h0.6v7.1c0,0.8-0.4,1.3-1.2,1.3c-0.9,0-1.2-0.5-1.2-1.3v-0.3h0.7v0.3c0,0.4,0.2,0.6,0.5,0.6
			c0.4,0,0.5-0.2,0.5-0.6V303.6L417.3,303.6z M417.3,298.8c-0.1-0.3-0.4-0.4-0.6-0.4c-0.4,0-0.5,0.2-0.5,0.5v3.9
			c0,0.4,0.1,0.5,0.5,0.5c0.3,0,0.5-0.1,0.6-0.4V298.8z"/>
		<path fill="#BCBEC0" d="M420.6,304.4v-5.6c0-0.4-0.1-0.5-0.4-0.5c-0.2,0-0.5,0.1-0.6,0.4v5.7h-0.7v-6.7h0.6c0,0.2,0,0.3,0,0.5
			c0.2-0.4,0.5-0.6,1-0.6c0.6,0,0.9,0.4,0.9,1.2v5.6H420.6z"/>
		<path fill="#BCBEC0" d="M423.7,302.4c0-0.3-0.1-0.4-0.3-0.8c-0.3-0.4-0.7-0.7-1-1c-0.3-0.3-0.4-0.6-0.4-1.1v-0.7
			c0-0.9,0.4-1.3,1.2-1.3c0.9,0,1.2,0.4,1.2,1.3v1.1h-0.7v-1.1c0-0.3-0.2-0.5-0.5-0.5c-0.3,0-0.5,0.2-0.5,0.5v0.8
			c0,0.3,0.1,0.4,0.3,0.7c0.3,0.3,0.7,0.6,1,0.9c0.3,0.4,0.4,0.7,0.4,1.3v0.7c0,0.8-0.4,1.2-1.3,1.2c-0.8,0-1.2-0.4-1.2-1.3v-1.1
			h0.7v1.1c0,0.3,0.2,0.5,0.5,0.5c0.3,0,0.5-0.2,0.5-0.5V302.4z"/>
	</g>
	<g>
		<path fill="#787878" d="M334.9,291.4c0.4,0.1,0.8,0.2,1.4,0.2c1,0,1.5-0.6,1.5-1.9v-20.3h2.2v20.3c0,2.8-1.3,4.1-3.7,4.1
			c-0.6,0-1.1-0.1-1.4-0.2L334.9,291.4L334.9,291.4z"/>
		<path fill="#787878" d="M346.6,293.7c-0.1-0.3-0.1-0.7-0.1-1.1c-0.5,0.9-1.2,1.3-2.2,1.3c-1.6,0-2.6-0.8-2.6-2.9v-2.7
			c0-3.6,2.1-4.5,4.7-5.6v-4c0-1-0.3-1.6-1.3-1.6c-1.1,0-1.3,0.5-1.3,1.6v3.8h-1.8v-3.9c0-2.4,1-3.6,3.2-3.6c2.2,0,3.2,1.2,3.2,3.6
			v12.8c0,0.8,0,1.6,0.1,2.1H346.6z M346.4,284.3c-2.4,0.9-2.7,1.9-2.7,4.2v1.9c0,1,0.5,1.5,1.4,1.5c0.6,0,1.1-0.3,1.3-1.1
			C346.4,290.8,346.4,284.3,346.4,284.3z"/>
		<path fill="#787878" d="M355.7,293.7l-3.3-9.4v9.4h-2v-24.2h2v13.9l3.3-7.9h2.1l-3.6,8l3.6,10.2H355.7z"/>
		<path fill="#787878" d="M363.4,286.2h1.9v4c0,2.4-1.1,3.7-3.3,3.7c-2.1,0-3.1-1.2-3.1-3.7v-11.4c0-2.5,1.1-3.8,3.1-3.8
			c2.2,0,3.3,1.2,3.3,3.8v5.9h-4.5v5.5c0,1.1,0.4,1.6,1.3,1.6c0.9,0,1.3-0.5,1.3-1.6L363.4,286.2L363.4,286.2z M363.4,278.9
			c0-1.1-0.4-1.6-1.3-1.6c-0.8,0-1.3,0.5-1.3,1.6v4.4h2.6L363.4,278.9L363.4,278.9z"/>
	</g>
	<g>
		<path fill="#8CD3DA" d="M439.1,303L439.1,303l0.2-0.4l-0.5,0.3C439,303,439.1,303,439.1,303z"/>
		<path fill="#8CD3DA" d="M465.6,297.7c-0.2-0.4-2.4-1.2-4.6-2c-0.3-0.1-0.6-0.2-0.9-0.3c-2.1-0.7-4-1.5-4-1.7c-0.1-0.3,1.3,0,1.3,0
			s0.5-0.1-2.2-1.2c-0.3-0.1-0.6-0.2-0.8-0.4c-1.2-0.5-1.9-1-2.3-1.2c-0.1-0.1-0.1-0.1-0.2-0.1c-0.1-0.1-0.2-0.1-0.2-0.1
			c-0.2-0.3-0.5-0.6-0.9-0.9c-0.2-0.2-0.5-0.4-0.8-0.6c-0.8-0.6-1.9-1.3-2.8-1.9c-0.3-0.2-0.7-0.4-1-0.6c-0.2-0.1-0.4-0.2-0.6-0.3
			c-0.8-0.5-1.1-0.7-1.3-0.9c-0.1-0.1-0.2-0.2-0.2-0.2l0,0c0,0-0.1-0.1-0.2-0.3c-0.1-0.2-0.3-0.4-0.6-0.7c-0.1-0.1-0.3-0.3-0.5-0.4
			c0,0,0,0-0.1,0c-0.4-0.4-1-0.8-1.6-1.1c-0.8-0.5-1.3-0.9-1.8-1.3c-0.1-0.1-0.2-0.2-0.3-0.4c0,0,0,0,0,0c-0.4-0.5-0.7-1-0.9-1.5
			c-0.1-0.2-0.2-0.5-0.3-0.7c-0.2-0.5-0.4-1-0.8-1.5s-0.8-1-1.3-1.3c-0.3-0.2-0.7-0.4-1.1-0.5c-0.4-0.1-0.9-0.2-1.4-0.2
			c-0.2,0-0.4,0-0.6,0c-0.4,0-0.7,0.1-1,0.2c-0.5,0.1-0.8,0.3-1.1,0.5l-0.2,0l-0.2,0.3c-0.1,0.1-0.1,0.1-0.1,0.1
			c-0.1,0.1-0.2,0.2-0.2,0.2c-0.2,0-0.2,0.2-0.2,0.2c-0.5,0-0.9,0-1.3,0c-1.6,0.1-1.8,0.6-1.8,0.6c0,0.1,0.3,0.1,0.3,0.1
			c0.8,0.4,1.5,0.5,2,0.6c0.1,0,0.2,0,0.2,0c0.2,0,0.3,0.1,0.3,0.2l0,0c1.2,0.4,1.1,1.3,1.6,1.9c0.9,1,0.7,1.5,0.7,1.5v0.5v0.4v0.2
			v0.7v0.2v1c0,0.2,0,0.3,0.1,0.5c0,0.2,0,0.4,0.1,0.5c0.1,0.6,0.2,1.1,0.3,1.6c0,0.1,0,0.1,0,0.2c0.1,0.4,0.2,0.7,0.2,1
			c0.1,0.4,0.3,0.8,0.4,1.2c0.1,0.3,0.2,0.6,0.4,0.8c0.4,0.8,0.8,1.3,1.1,1.7c0.3,0.4,0.5,0.6,0.7,0.7c0.1,0.1,0.1,0.1,0.1,0.1
			s0.1,0.1,0.3,0.2c0.1,0.1,0.2,0.1,0.4,0.2l0.4,0.3l0,0c0.2,0.1,0.4,0.3,0.6,0.4c0.3,0.3,0.7,0.5,1.1,0.8c1.1,0.6,2.5,1,2.7,1.1
			c0,0,0,0,0,0s0.5,0.3,0.5,1.1c0,0.1,0,0.1,0,0.1c0,0.4,0.1,0.7,0.2,0.8c0.1,0.3,0.3,0.4,0.4,0.5l0,0.1c-0.1,0.1-0.1,0.6-0.1,0.6
			l-1,1.9l-0.5,1l-0.4,0.8l0.2-0.1l-0.2,0.2l-0.5,1h-0.1c0,0-1-0.2-1.8-0.5h-0.2c0,0,0,0.1,0.3,0.1c0.2,0,0.1,0.2,0.1,0.2
			s0.2,0.2,0.7,0.3l-1.9,0.1c0,0-0.9,0-0.9,0.2c0,0,0.3-0.2,0.7-0.1c0,0,0.2,0.4,0.5,0.2c0.4-0.2,0.6,0,0.8,0.1
			c0.2,0,0.5-0.2,0.9-0.1c-0.6,0.3-0.8,0.3-0.8,0.3s-0.5,0.1-0.5,0.5c0,0,0.3-0.3,0.5-0.2c0.1,0.2,0.3,0.1,0.3,0.1s1.2-0.5,1.4-0.5
			c0.2,0,0.3,0,0.4-0.1c0.1-0.1,1.5,0,1.6,0s0.5-0.2,0.4-0.4c-0.1-0.3,1-0.2,0.9,0.2v0.1c0,0,0.1-0.1,0-0.4
			c-0.1-0.3-0.9-0.3-1.3,0.1c-0.2,0.3-1,0.2-1.1,0.2c-0.1,0-0.2,0-0.2,0c0.2-0.3,1-1.3,1.6-2.3l0,0c0.1-0.1,0.1-0.1,0.1-0.2
			c0.3-0.4,0.5-0.8,0.8-1.1c0.2-0.3,0.4-0.6,0.6-0.9c0,0,0-0.1,0.1-0.1c0.1-0.1,0.1-0.2,0.1-0.2c1-1.7,0.2-2.7,0.2-2.7
			c1.6,0,2.6-0.1,3.3-0.3c0.4-0.1,0.6-0.2,0.8-0.2c0.1-0.1,0.2-0.1,0.3-0.1c0,0,0.1-0.1,0.1-0.1c0.1-0.1,0.1-0.1,0.1-0.1
			s1.7,0.2,2.1-0.1c0.2-0.2,1.9-0.2,3.1-0.1c0.1,0,0.3,0,0.4,0c0.6,0,1,0.1,1,0.1c0,0.1,0.7,0.1,1.3,0.2l0.1,0l0,0c0.4,0,0.8,0,1,0
			c0.2,0,1.7,0.4,3.3,0.9c0.2,0.1,0.4,0.1,0.6,0.2c1.5,0.5,2.9,0.9,2.9,0.9S466,298.4,465.6,297.7z"/>
	</g>
</g>
<g id="Layer_2" display="none">
	<g display="inline">
		<path fill="#F6CF98" d="M626.1,341.1c0,0-6.2-1-10.5-3.3h-2c0,0,0,0.7,1.8,0.7c1.1,0.2,0.8,1.5,0.8,1.5s1,1.1,3.9,1.6l-11.3,0.3
			c0,0-5.2-0.2-5.4,1.3c0,0,2-1,3.9-0.3c0,0,1,2.1,3.1,1.1c2.1-1.1,3.8,0.2,5.1,0.3c1.5,0.2,2.8-1.1,5.6-0.3
			c-3.4,1.8-4.9,1.6-4.9,1.6s-3.1,0.7-3.3,2.8c0,0,1.6-1.8,2.8-1.1c0.5,1.1,2,0.5,2,0.5s7-3.3,8.5-3.3c1.5,0,2-0.2,2.6-0.5
			c0.5-0.3,8.8,0.2,9.5,0.2s2.9-1,2.6-2.6c-0.3-1.8,5.9-1.3,5.2,1.5v0.3c0,0,0.5-0.7,0-2.3c-0.7-1.6-5.4-2-7.7,0.3
			c-1.5,1.8-6.1,1.3-6.5,1.1c-0.5-0.2-2.5-0.3-2.5-0.3"/>
		<path fill="#F6CF98" d="M629.3,335.4l-3.8,7.2h4.3c0,0,9.2-11.8,14.1-20.1l-0.2-0.2L629.3,335.4z"/>
		<g>
			<g>
				<path fill="none" d="M576,175.3l-1.1-0.2l-1,2C574.5,176.5,575.2,176,576,175.3z"/>
				<path fill="none" d="M641,308.9l0.2,0.3l0,0C641.3,309.2,641.3,309,641,308.9z"/>
				<path fill="none" d="M621.3,340.4l-1.5,1c0.7-0.3,1.1-0.5,2-1C621.7,340.6,621.5,340.4,621.3,340.4z"/>
				<path fill="none" d="M628,337.3l1.1-2.1l-2.8,1.8c0.8,0.2,1.3,0.2,1.3,0.2L628,337.3z"/>
				<path fill="none" d="M727.5,292.2l-0.2-0.2c-0.2,0-0.3,0-0.7,0L727.5,292.2z"/>
				<polygon fill="#F7D8AA" points="637.7,248.5 627.9,256.8 642.9,262.2 649.1,255.7 644.6,249.3 				"/>
				<path fill="#F6CF98" d="M638.7,305.9c0.8,1.6,1.8,2.5,2.3,2.9l-3.4-8C637.7,303.1,638.2,304.8,638.7,305.9z"/>
				<polygon fill="#F6CF98" points="649.1,255.7 654.5,250.3 644.6,249.3 				"/>
				<polygon fill="#FBE9D1" points="616.4,246 614.6,247 617.2,253.1 627.9,256.8 637.7,248.5 				"/>
				<polygon fill="#F6CF98" points="596.6,182.4 594.2,178.9 584.8,177.1 592.2,194.2 				"/>
				<path fill="#F9E0BE" d="M592.2,194.2l-7.2-17l-9-1.8c-0.8,0.7-1.5,1.1-2,1.6l-5.6,11.8l0,0c7.2,2.1,6.9,7.5,9.5,11.1
					c5.2,6.2,4.3,8.8,4.3,8.8v2.8l3.9-1.5L592.2,194.2z"/>
				<polygon fill="#F7D8AA" points="597.1,205.9 610,201 596.6,182.4 592.2,194.2 				"/>
				<polygon fill="#F6CF98" points="614.1,245.9 614.6,247 616.4,246 				"/>
				<path fill="#F6CF98" d="M584.8,242.6l3.8,0.5l-3.9-1.5C584.7,241.9,584.7,242.3,584.8,242.6z"/>
				<path fill="#F7D8AA" d="M551.8,184c0.2,0.7,1.6,0.3,1.6,0.3c4.6,2.3,9.2,3.1,11.8,3.4l-2.5-7.5C553.4,180.9,551.8,184,551.8,184
					z"/>
				<path fill="#F6CF98" d="M710.2,290.2c0.8,0,1.6,0,2.5,0.2c3.4,0.2,6.1,0.5,6.2,0.7c0.2,0.3,4.3,0.8,8,1.1L709,286L710.2,290.2z"
					/>
				<path fill="#FDF2E5" d="M640,328l1.1-0.8c1.6-2.1,3.1-4.6,4.7-6.9l-3.4-8.2l-6.4,13.3L640,328z"/>
				<path fill="#FDF2E5" d="M582.7,172.1c-2.9,0.8-5.1,2-6.7,3.1l8.8,1.8L582.7,172.1z"/>
				<polygon fill="#F6CF98" points="673.7,289.9 661.6,272.9 657.2,282 				"/>
				<polygon fill="#F7D8AA" points="632.1,333.2 640,328 635.9,325.4 				"/>
				<polygon fill="#FBE9D1" points="597.6,179.8 594.2,178.9 596.6,182.4 				"/>
				<polygon fill="#F7D8AA" points="621.2,262.4 627.9,256.8 617.2,253.1 				"/>
				<polygon fill="#F6CF98" points="644.6,249.3 641.6,245 637.7,248.5 				"/>
				<polygon fill="#F6CF98" points="609.1,250.3 617.2,253.1 614.6,247 				"/>
				<polygon fill="#F6CF98" points="657.7,267.5 649.1,255.7 642.9,262.2 				"/>
				<polygon fill="#F9E0BE" points="637.7,248.5 641.6,245 634.7,235.6 616.4,246 				"/>
				<polygon fill="#FDF2E5" points="586.1,210 597.1,205.9 592.2,194.2 				"/>
				<path fill="#F6CF98" d="M586.3,248.3c0.8,2.6,1.6,4.9,2.5,7l3.3-4.4L586.3,248.3z"/>
				<path fill="#F7D8AA" d="M592,251.1l-3.3,4.4c0.7,1.8,1.5,3.6,2.3,5.1l9.5-5.4L592,251.1z"/>
				<path fill="#F9E0BE" d="M600.5,255.2l-9.5,5.4c2.3,4.6,4.6,7.9,6.5,10.3c1.6,2.1,3.1,3.4,3.9,4.3c0.5,0.5,0.8,0.8,0.8,0.8
					s0.7,0.3,1.8,1.1l15.2-12.9L600.5,255.2z"/>
				<path fill="#FBE9D1" d="M596.3,245.7l-7.7-2.8l-3.8-0.5c0.5,2.1,1,3.9,1.5,5.9l5.7,2.8L596.3,245.7z"/>
				<path fill="#F9E0BE" d="M597.6,179.8l2.8-7.5c-2.5-0.8-5.4-1.3-8.5-1.3c-1.3,0-2.5,0-3.4,0.2l5.6,7.9L597.6,179.8z"/>
				<path fill="#FBE9D1" d="M622.6,265.7l-3.3-1.5l-15.2,12.9c0.7,0.3,1.3,0.8,2.1,1.5l2.3,2l0.2-0.2c1,0.8,2.1,1.6,3.4,2.6
					c1.8,1.6,4.1,3.1,6.4,4.6l9.2-9.5L622.6,265.7z"/>
				<path fill="#F6CF98" d="M614.9,183.2c-2.1-2.9-4.7-5.9-8-8c-2-1.3-4.1-2.3-6.5-3.1l-2.8,7.5L614.9,183.2z"/>
				<path fill="#F6CF98" d="M568.5,188.9l5.6-11.8c-0.3,0.3-0.5,0.5-0.8,0.8c-0.8,0.8-1.1,1.5-1.5,1.5c-1.1,0-1.5,1-1.5,1
					c-2.9-0.2-5.4-0.2-7.5,0l2.5,7.5c0.7,0.2,1.1,0.2,1.5,0.2C568.1,188.3,568.5,188.8,568.5,188.9z"/>
				<path fill="#F9E0BE" d="M596.6,182.4L610,201l11.5-4.4c-0.5-1.3-1.1-2.8-1.6-4.3c-1.1-2.9-2.6-6.2-4.7-9.2l-17.3-3.6
					L596.6,182.4z"/>
				<path fill="#F7D8AA" d="M584.8,177.1l9.3,2l-5.6-7.9c-2.1,0.2-4.1,0.5-5.7,1L584.8,177.1z"/>
				<path fill="#F6CF98" d="M676.1,293.3c0.7-0.3,1.1-0.5,1.6-0.8c0.2-0.2,0.5-0.3,0.7-0.3l-4.6-2.1L676.1,293.3z"/>
				<path fill="#FBE9D1" d="M657.2,282l-14.7,30.1l3.4,8.2c1.1-1.8,2.5-3.6,3.4-5.4c0.2-0.2,0.2-0.3,0.3-0.7c0.3-0.5,0.7-1,0.8-1.5
					c5.9-10.1,1.1-16.2,1.1-16.2c9.5,0,15.7-0.8,19.8-1.8c2.1-0.5,3.6-1,4.7-1.5l-2.5-3.4L657.2,282z"/>
				<path fill="#F7D8AA" d="M627.7,277.8l-9.2,9.5c6.9,3.8,14.7,6.2,16,6.7L627.7,277.8z"/>
				<path fill="#F6CF98" d="M640,328l0.5,0.3c0.3-0.3,0.5-0.7,0.8-1.1L640,328z"/>
				<path fill="#F9E0BE" d="M679.3,291.4c0,0,10.3,1.5,12.4-0.3c1.1-1,11.1-1.1,18.7-0.8l-1.1-4.4l-45.8-16.2l-1.6,3.4l12.3,17
					l4.6,2.1C679.1,291.7,679.3,291.4,679.3,291.4z"/>
				<polygon fill="#FBE9D1" points="635.9,325.4 634.6,324.6 631.6,330.5 629.2,335.2 632.1,333.2 				"/>
				<path fill="#F7D8AA" d="M642.4,312.1l-1.3-2.9c-0.7,0.3-0.7,3.8-0.7,3.8l-5.9,11.5l1.3,0.8L642.4,312.1z"/>
				<polygon fill="#F9E0BE" points="642.9,262.2 627.9,256.8 621.2,262.4 622.6,265.7 634.3,271.1 				"/>
				<polygon fill="#F6CF98" points="619.4,264 622.6,265.7 621.2,262.4 				"/>
				<polygon fill="#FDF2E5" points="622.6,265.7 627.7,277.8 634.3,271.1 				"/>
				<polygon fill="#F7D8AA" points="642.9,262.2 634.3,271.1 657.2,282 661.6,272.9 657.7,267.5 				"/>
				<path fill="#F9E0BE" d="M627.7,277.8l6.9,16c0.2,0,0.2,0,0.2,0s2.8,1.6,2.8,6.4c0,0.3,0,0.5,0,0.7l3.4,8
					c0.2,0.2,0.3,0.3,0.2,0.3l0,0l1.3,2.9l14.7-30.1l-22.9-11L627.7,277.8z"/>
				<polygon fill="#FBE9D1" points="614.6,247 614.1,245.9 597.6,243.9 596.3,245.7 609.1,250.3 				"/>
				<polygon fill="#FDF2E5" points="617.2,253.1 609.1,250.3 600.5,255.2 619.4,264 621.2,262.4 				"/>
				<polygon fill="#F9E0BE" points="588.4,242.9 596.3,245.7 597.6,243.9 				"/>
				<polygon fill="#F9E0BE" points="596.3,245.7 592,251.1 600.5,255.2 609.1,250.3 				"/>
				<path fill="#FBE9D1" d="M756.5,298.7c9,2.8,17.3,5.6,17.3,5.6s15.1,5.9,12.6,1.3c-1.1-2.1-14.1-7-27.3-11.8l-3.8,2.3
					L756.5,298.7z"/>
				<path fill="#F7D8AA" d="M663.2,269.4l45.8,16.2l-5.2-21.3c-0.7-0.5-1-0.8-1-0.8c-1.3-1.6-3.3-3.4-5.4-5.2
					c-1.5-1.1-2.9-2.5-4.6-3.6l-21.1-2.5L663.2,269.4z"/>
				<path fill="#F9E0BE" d="M729.3,282c-0.7-1.6,7.5-0.2,7.5-0.2s2.9-0.8-13.1-7.4c-1.8-0.8-3.6-1.5-5.1-2.1l8.8,19.6
					c2.5,0.2,4.7,0.2,5.9,0.2c1.3,0,10.3,2.6,19.6,5.4l2.5-1.5l-2-4.3C740.9,287.4,729.5,283.3,729.3,282z"/>
				<path fill="#F6CF98" d="M692.8,254.7c-5.1-3.8-11.1-7.7-16.9-11.1l-4.3,8.7L692.8,254.7z"/>
				<path fill="#F6CF98" d="M758.9,293.8c-1.8-0.7-3.8-1.3-5.6-2l2,4.3L758.9,293.8z"/>
				<path fill="#F6CF98" d="M704.8,265c-0.3-0.3-0.7-0.5-1-0.7l5.2,21.3l17.8,6.2c0.2,0,0.3,0,0.7,0l-8.8-19.6
					C711.3,269.1,707.1,266.6,704.8,265z"/>
				<polygon fill="#F9E0BE" points="654.5,250.3 649.1,255.7 657.7,267.5 663.2,269.4 671.7,252.2 				"/>
				<polygon fill="#F6CF98" points="661.6,272.9 663.2,269.4 657.7,267.5 				"/>
				<path fill="#F6CF98" d="M752.9,297.6c1.1,0.3,2.3,0.7,3.6,1.1l-1.1-2.6L752.9,297.6z"/>
				<path fill="#FDF2E5" d="M666.5,238.2l-11.9,12.3l17.2,2l4.3-8.7c-2-1.1-4.1-2.5-6.1-3.4C668.6,239.3,667.5,238.7,666.5,238.2z"
					/>
			</g>
			<path fill="none" d="M553.1,302.6"/>
			<path fill="none" d="M644.6,182.4"/>
			<g>
				<path fill="#F9E0BE" d="M641.6,245l2.9,4.1l10,1.1l11.9-12.3c-4.6-2.8-6.9-4.4-8-5.4l-1.8-0.5L641.6,245z"/>
				<path fill="#F9E0BE" d="M657.5,231.6l-0.8,0.7l1.8,0.5C657.7,232.1,657.5,231.8,657.5,231.6z"/>
				<polygon fill="#F9E0BE" points="604.3,219.2 603.2,219.8 606.9,228.8 609.1,229 614.6,221.8 				"/>
				<polygon fill="#F9E0BE" points="606.4,218 617.6,211.5 610,201 597.1,205.9 602,217.6 				"/>
				<polygon fill="#F9E0BE" points="602.7,218.9 603.2,219.8 604.3,219.2 				"/>
				<polygon fill="#F9E0BE" points="607.7,230.6 609.1,229 606.9,228.8 				"/>
				<polygon fill="#F9E0BE" points="619.9,214.8 617.6,211.5 606.4,218 616.6,219.2 				"/>
				<polygon fill="#F7D8AA" points="614.6,221.8 616.6,219.2 606.4,218 604.3,219.2 				"/>
				<polygon fill="#F7D8AA" points="606.4,218 602,217.6 602.7,218.9 604.3,219.2 				"/>
				<polygon fill="#F6CF98" points="623.6,220 619.9,214.8 616.6,219.2 				"/>
				<polygon fill="#F7D8AA" points="609.1,229 607.7,230.6 614.1,245.9 616.4,246 634.7,235.6 630.2,229.2 				"/>
				<polygon fill="#F6CF98" points="614.6,221.8 609.1,229 630.2,229.2 627.1,224.9 				"/>
				<polygon fill="#F9E0BE" points="614.6,221.8 627.1,224.9 623.6,220 616.6,219.2 				"/>
				<path fill="#FBE9D1" d="M626.6,206.3l0.3-0.3c-2.5-2.9-4.1-5.9-5.4-9.2l-11.5,4.4l7.5,10.5L626.6,206.3z"/>
				<polygon fill="#FBE9D1" points="626.6,206.3 617.6,211.5 619.9,214.8 				"/>
				<path fill="#FBE9D1" d="M645.4,229.5l11.3,2.8l0.8-0.7l0,0c0,0-0.5-0.8-1.5-2L645.4,229.5L645.4,229.5z"/>
				<polygon fill="#FBE9D1" points="645.4,229.5 634.7,235.6 641.6,245 656.7,232.3 				"/>
				<path fill="#FBE9D1" d="M652.3,225.6l-6.7,3.9l10.5,0.2C655,228.5,653.9,227.2,652.3,225.6z"/>
				<path fill="#F7D8AA" d="M619.9,214.8l3.6,5.1l25.7,2.9c-2.6-2.1-5.7-4.6-9.8-6.9c-4.7-2.8-8-5.4-10.6-7.9
					c-0.7-0.7-1.3-1.3-1.8-2.1l-0.3,0.2L619.9,214.8z"/>
				<polygon fill="#F9E0BE" points="645.2,229.5 630.2,229.2 634.7,235.6 645.4,229.5 				"/>
				<polygon fill="#F7D8AA" points="630.2,229.2 645.2,229.5 627.1,224.9 				"/>
				<path fill="#F7D8AA" d="M626.9,205.9L626.9,205.9l-0.3,0.2L626.9,205.9z"/>
				<path fill="#FDF2E5" d="M627.1,224.9l18.2,4.6h0.2l6.7-3.9c-0.8-0.8-1.6-1.6-2.8-2.5c-0.2,0-0.2-0.2-0.3-0.2l-25.7-2.9
					L627.1,224.9z"/>
				<polygon fill="#F7D8AA" points="645.2,229.5 645.4,229.5 645.5,229.5 				"/>
				<polygon fill="#F6CF98" points="584.5,214.3 582.2,213.6 582.2,215.3 584,215.4 				"/>
				<polygon fill="#F6CF98" points="586.1,210 582.2,211.5 582.2,213.6 584.5,214.3 				"/>
				<polygon fill="#F6CF98" points="582.2,215.3 582.2,219.2 582.2,220.2 584,215.4 				"/>
				<polygon fill="#F9E0BE" points="597.6,243.9 614.1,245.9 607.7,230.6 				"/>
				<polygon fill="#F7D8AA" points="584,215.4 593.3,216.4 584.5,214.3 				"/>
				<polygon fill="#F6CF98" points="593.3,216.4 602.7,218.9 602,217.6 				"/>
				<polygon fill="#FDF2E5" points="588.3,228.7 606.9,228.8 603.2,219.8 				"/>
				<polygon fill="#F7D8AA" points="593.3,216.4 602,217.6 597.1,205.9 586.1,210 584.5,214.3 				"/>
				<path fill="#F7D8AA" d="M606.9,228.8l-18.8-0.3l-5.2,3.1c0.5,3.4,1,6.7,1.6,9.8l3.9,1.5l9,1l10.1-13.3L606.9,228.8z"/>
				<path fill="#FBE9D1" d="M603.2,219.8l-0.5-1.1l-9.3-2.3l-9.2-1l-1.8,4.7v5.7c0,1,0.2,1.8,0.3,2.8h5.6L603.2,219.8z"/>
				<path fill="#F7D8AA" d="M582.5,228.7c0.2,1.1,0.2,2.1,0.3,3.1l5.2-3.1H582.5z"/>
			</g>
		</g>
	</g>
	<g display="inline">
		<g>
			<path fill="#787878" d="M245,26.4c-2.6-19-5.2-37.3-8.7-56c-1,0.2-1.6,0.2-2.6,0.2h-6.2v55.8H216V-96.8h18.7
				c14.4,0,21.4,6.1,21.4,22.1v24.5c0,9-2.9,14.9-9.2,18.2c4.1,19.6,7.4,39.3,10.3,58.4H245z M244.6-73.1c0-8.8-2-12.1-9.8-12.1
				h-7.4v45.5h7.5c7,0,9.7-3.1,9.7-10.1V-73.1z"/>
			<path fill="#787878" d="M264.8-49.2c0-11.9,5.6-18.5,17-18.5c11.3,0,17,6.5,17,18.5V9.4c0,11.9-5.7,18.3-17,18.3
				c-11.5,0-17-6.4-17-18.3V-49.2z M288.8-48.8c0-5.2-1.5-8.2-7-8.2s-7,2.9-7,8.2V9.4c0,5.2,1.5,7.9,7,7.9c5.6,0,7-2.8,7-8.2V-48.8z
				"/>
			<path fill="#787878" d="M308.9,26.4V-96.8h10.3v35c2.3-3.6,6.2-6.1,11.3-6.1c9.5,0,13.4,4.9,13.4,17V8.4
				c0,13.1-4.4,18.8-15.2,18.8c-6.1,0-10.1,0.5-12.6-4.3c-0.5,2.5-0.8,0.8-1.6,3.1h-5.6V26.4z M333.8-50c0-4.6-2.3-7-6.5-7
				c-3.4,0-6.5,2-7.9,6.1v61.4c1.3,4.1,4.4,6.1,7.9,6.1c4.6,0,6.5-2,6.5-7.9V-50z"/>
			<path fill="#787878" d="M354.6-78v-18.7h10.3V-78H354.6z M354.6,26.4v-92.6h10.3v92.6L354.6,26.4L354.6,26.4z"/>
			<path fill="#787878" d="M400.6,26.4V-50c0-5.4-1.6-7.5-6.1-7.5c-2.9,0-6.2,1.6-7.9,5.7v78.2h-10.3v-92.6h8.7
				c0.3,2.3,0.5,4.6,0.5,7c2.8-5.2,7.5-8.5,13.3-8.5c8.3,0,12.1,5.2,12.1,17v77.1L400.6,26.4L400.6,26.4z"/>
			<path fill="#787878" d="M443.1-0.4c0-4.1-0.8-6.1-4.4-10.8c-4.3-4.9-10-9.3-13.7-13.9c-4.1-4.4-4.7-8-4.7-15.2V-50
				c0-12.8,5.7-17.8,16.5-17.8c12.6,0,16.5,5.4,16.5,17.8v15.1h-9.5V-50c0-4.6-2.9-7.5-6.7-7.5c-4.4,0-6.7,2.6-6.7,7.5v11
				c0,4.4,0.8,6.1,4.3,9.7c4.1,4.4,9.7,8.2,13.3,12.6c4.6,5.4,5.9,9.7,5.9,17.7v10c0,11.8-5.7,16.7-17.2,16.7
				c-10.8,0-16.2-5.7-16.2-17.2V-4.7h9.3v14.9c0,4.6,2.9,7.5,7,7.5c4.4,0,6.7-2.6,6.7-7.5V-0.4H443.1z"/>
			<path fill="#787878" d="M462.3-49.2c0-11.9,5.6-18.5,17-18.5c11.3,0,17,6.5,17,18.5V9.4c0,11.9-5.7,18.3-17,18.3
				c-11.5,0-17-6.4-17-18.3V-49.2z M486.3-48.8c0-5.2-1.5-8.2-7-8.2s-7,2.9-7,8.2V9.4c0,5.2,1.5,7.9,7,7.9s7-2.8,7-8.2V-48.8z"/>
			<path fill="#787878" d="M530.8,26.4V-50c0-5.4-1.6-7.5-6.1-7.5c-2.9,0-6.2,1.6-7.9,5.7v78.2h-10.3v-92.6h8.7
				c0.3,2.3,0.5,4.6,0.5,7c2.8-5.2,7.5-8.5,13.3-8.5c8.3,0,12.1,5.2,12.1,17v77.1L530.8,26.4L530.8,26.4z"/>
		</g>
		<g>
			<path fill="#BCBEC0" d="M420.1,90.6V36.9h8.3c5.7,0,8.5,3.4,8.5,9.2v35.3c0,6.1-2.8,9.2-8.5,9.2L420.1,90.6L420.1,90.6z
				 M431.8,46.1c0-2.6-1.1-4.3-3.4-4.3H425v43.9h3.4c2.3,0,3.4-1.5,3.4-4.3V46.1z"/>
			<path fill="#BCBEC0" d="M450.8,74h4.3v8.8c0,5.4-2.5,8.2-7.2,8.2c-4.6,0-7-2.8-7-8.2v-25c0-5.4,2.5-8.3,7-8.3
				c4.7,0,7.2,2.8,7.2,8.3v12.9h-10v12.1c0,2.5,1,3.6,2.8,3.6c2,0,2.9-1.1,2.9-3.6V74z M450.8,57.8c0-2.5-1-3.6-2.9-3.6
				c-2,0-2.8,1.1-2.8,3.6v9.7h5.7V57.8z"/>
			<path fill="#BCBEC0" d="M469,78.8c0-1.8-0.3-2.6-2-4.7c-1.8-2.1-4.4-4.1-6.1-6.1c-1.8-2-2.1-3.4-2.1-6.7v-4.1
				c0-5.6,2.5-7.7,7.2-7.7c5.4,0,7.2,2.3,7.2,7.7v6.5h-4.1v-6.5c0-2-1.3-3.3-2.9-3.3c-2,0-2.9,1.1-2.9,3.3v4.7c0,2,0.3,2.6,1.8,4.3
				c1.8,2,4.1,3.6,5.7,5.4c2,2.3,2.6,4.3,2.6,7.7v4.4c0,5.1-2.5,7.4-7.5,7.4c-4.7,0-7-2.5-7-7.5V77h4.1v6.4c0,2,1.3,3.3,3.1,3.3
				c2,0,2.9-1.1,2.9-3.3V78.8z"/>
			<path fill="#BCBEC0" d="M477.8,45.1v-8.2h4.4v8.2H477.8z M477.8,90.6V50.3h4.4v40.3H477.8z"/>
			<path fill="#BCBEC0" d="M497.8,86c-1,1.6-2.8,2.6-5.1,2.6c-4.1,0-5.9-2.1-5.9-7.4V57.4c0-5.2,2-7.5,5.7-7.5
				c2.8,0,4.4,1.1,5.6,3.4c0-1,0-2.1,0.2-3.1h3.8v42.4c0,4.9-2.3,7.7-7.4,7.7c-5.6,0-7.4-2.8-7.4-7.7v-1.6h4.1v1.8
				c0,2.3,1,3.4,3.3,3.4c2.1,0,3.1-1.1,3.1-3.4L497.8,86L497.8,86z M497.8,57.2c-0.7-1.8-2.1-2.6-3.6-2.6c-2.3,0-2.9,1.1-2.9,3.1
				v23.6c0,2.3,0.7,3.1,2.9,3.1c1.6,0,2.9-0.8,3.6-2.6V57.2z"/>
			<path fill="#BCBEC0" d="M517.4,90.6V57.4c0-2.3-0.7-3.3-2.6-3.3c-1.3,0-2.8,0.7-3.4,2.5v34h-4.4V50.3h3.8c0.2,1,0.2,2,0.2,3.1
				c1.3-2.3,3.3-3.8,5.7-3.8c3.6,0,5.2,2.3,5.2,7.4v33.5H517.4z"/>
			<path fill="#BCBEC0" d="M536.1,78.8c0-1.8-0.3-2.6-2-4.7c-1.8-2.1-4.4-4.1-6.1-6.1c-1.8-2-2.1-3.4-2.1-6.7v-4.1
				c0-5.6,2.5-7.7,7.2-7.7c5.4,0,7.2,2.3,7.2,7.7v6.5h-4.1v-6.5c0-2-1.3-3.3-2.9-3.3c-2,0-2.9,1.1-2.9,3.3v4.7c0,2,0.3,2.6,1.8,4.3
				c1.8,2,4.1,3.6,5.7,5.4c2,2.3,2.6,4.3,2.6,7.7v4.4c0,5.1-2.5,7.4-7.5,7.4c-4.7,0-7-2.5-7-7.5V77h4.1v6.4c0,2,1.3,3.3,3.1,3.3
				c2,0,2.9-1.1,2.9-3.3V78.8z"/>
		</g>
		<g>
			<path fill="#787878" d="M5.2,12.8c2.1,0.8,4.9,1.3,8.5,1.3c5.7,0,8.7-3.8,8.7-11.3v-121.3h13.4V2.9c0,17-7.7,24.7-21.9,24.7
				c-3.8,0-6.5-0.3-8.5-1.3V12.8H5.2z"/>
			<path fill="#787878" d="M74.9,26.4c-0.5-2-0.7-3.9-0.7-6.5c-2.9,5.4-7.2,8-13.1,8c-9.8,0-15.7-5.1-15.7-17.2v-16
				c0-21.3,12.4-27.2,28-33.5v-23.7c0-6.2-1.8-9.5-7.9-9.5c-6.4,0-7.9,3.3-7.9,9.5v22.9H47v-23.1c0-14.2,5.7-21.4,19-21.4
				c12.9,0,19.1,7.2,19.1,21.4V14c0,5.1,0.2,9.8,0.8,12.4L74.9,26.4L74.9,26.4z M73.6-29.2C59.4-24,57.4-17.8,57.4-4.3V7.3
				c0,6.1,2.8,9,8.3,9c3.6,0,6.7-2,7.9-6.9C73.6,9.4,73.6-29.2,73.6-29.2z"/>
			<path fill="#787878" d="M129.6,26.4l-19.6-56v56H98.2v-144.8H110v83l19.6-47h12.8l-21.3,48.3l21.8,60.7h-13.3V26.4z"/>
			<path fill="#787878" d="M175.6-17.9H187V6c0,14.6-6.5,21.9-19.5,21.9c-12.4,0-18.8-7.4-18.8-21.9v-67.9
				c0-14.7,6.7-22.4,18.8-22.4c13.1,0,19.5,7.4,19.5,22.4v35h-27.2V6c0,6.5,2.5,9.7,7.5,9.7c5.4,0,8-3.1,8-9.7v-23.9H175.6z
				 M175.6-61.9c0-6.5-2.6-9.7-8-9.7c-5.1,0-7.5,3.1-7.5,9.7v26.2h15.7v-26.2H175.6z"/>
		</g>
		<g>
			<path fill="#F7D8AA" d="M627.7,82.1h0.3l1.1-2.1l-2.8,1.8C627.2,81.9,627.7,82.1,627.7,82.1z"/>
			<path fill="#F7D8AA" d="M786.3,50.3c-1.1-2.1-14.1-7-27.3-11.8c-1.8-0.7-3.8-1.3-5.6-2c-12.4-4.4-23.9-8.7-24.1-10
				c-0.7-1.6,7.5-0.2,7.5-0.2s2.9-0.8-13.1-7.4c-1.8-0.8-3.6-1.5-5.1-2.1c-7.4-3.3-11.6-5.9-13.9-7.4c-0.3-0.3-0.7-0.5-1-0.7
				c-0.7-0.5-1-0.8-1-0.8c-1.3-1.6-3.3-3.4-5.4-5.2c-1.5-1.1-2.9-2.5-4.6-3.6c-5.1-3.8-11.1-7.7-16.9-11.1c-2-1.1-4.1-2.5-6.1-3.4
				c-1.3-0.7-2.5-1.3-3.4-2c-4.6-2.8-6.9-4.4-8-5.4c-0.8-0.7-1-1-1-1.1l0,0c0,0-0.5-0.8-1.5-2c-0.8-1-2-2.5-3.8-3.9
				c-0.8-0.8-1.6-1.6-2.8-2.5c-0.2,0-0.2-0.2-0.3-0.2c-2.6-2.1-5.7-4.6-9.8-6.9c-4.7-2.8-8-5.4-10.6-7.9c-0.7-0.7-1.3-1.3-1.8-2.1
				c0,0,0-0.2-0.2-0.2c-2.5-2.9-4.1-5.9-5.4-9.2c-0.5-1.3-1.1-2.8-1.6-4.3c-1.1-2.9-2.6-6.2-4.7-9.2c-2.1-2.9-4.7-5.9-8-8
				c-2-1.3-4.1-2.3-6.5-3.1c-2.5-0.8-5.4-1.3-8.5-1.3c-1.3,0-2.5,0-3.4,0.2c-2.1,0.2-4.1,0.5-5.7,1c-2.9,0.8-5.1,2-6.7,3.1l-1.1-0.2
				l-1,2c-0.3,0.3-0.5,0.5-0.8,0.8c-0.8,0.8-1.1,1.5-1.5,1.5c-1.1,0-1.5,1-1.5,1c-2.9-0.2-5.4-0.2-7.5,0c-9.3,0.7-11,3.8-11,3.8
				c0.2,0.7,1.6,0.3,1.6,0.3c4.6,2.3,9.2,3.1,11.8,3.4c0.7,0.2,1.1,0.2,1.5,0.2c1.5,0.2,1.8,0.7,1.8,1l0,0c7.2,2.1,6.9,7.5,9.5,11.1
				c5.2,6.2,4.3,8.8,4.3,8.8v2.8v2.1v1.5v3.9v1v5.7c0,1,0.2,1.8,0.3,2.8c0.2,1.1,0.2,2.1,0.3,3.1c0.5,3.4,1,6.7,1.6,9.8
				c0,0.3,0.2,0.7,0.2,1c0.5,2.1,1,3.9,1.5,5.9c0.8,2.6,1.6,4.9,2.5,7c0.7,1.8,1.5,3.6,2.3,5.1c2.3,4.6,4.6,7.9,6.5,10.3
				c1.6,2.1,3.1,3.4,3.9,4.3c0.5,0.5,0.8,0.8,0.8,0.8s0.7,0.3,1.8,1.1c0.7,0.3,1.3,0.8,2.1,1.5l2.3,2l0.2-0.2c1,0.8,2.1,1.6,3.4,2.6
				c1.8,1.6,4.1,3.1,6.4,4.6c6.9,3.8,14.7,6.2,16,6.7c0.2,0,0.2,0,0.2,0s2.8,1.6,2.8,6.4c0,0.3,0,0.5,0,0.7c0.2,2.3,0.5,3.9,1.1,5.1
				c0.8,1.6,1.8,2.5,2.3,2.9l0.2,0.3c-0.7,0.3-0.7,3.8-0.7,3.8l-5.9,11.5l-3.1,5.9l-2.5,4.7l1.3-0.8l-1.1,1l-2.9,5.7h-0.3
				c0,0-6.2-1-10.5-3.3h-1.5c0,0,0,0.7,1.8,0.7c1.1,0.2,0.8,1.5,0.8,1.5s1,1.1,3.9,1.6L608.9,87c0,0-5.2-0.2-5.4,1.3
				c0,0,2-1,3.9-0.3c0,0,1,2.1,3.1,1.1c2.1-1.1,3.8,0.2,5.1,0.3c1.3,0.2,2.8-1.1,5.6-0.3c-3.4,1.8-4.9,1.6-4.9,1.6s-3.1,0.7-3.3,2.8
				c0,0,1.6-1.8,2.8-1.1c0.5,1.1,2,0.5,2,0.5s7-3.3,8.5-3.3c1.5,0,2-0.2,2.6-0.5c0.5-0.3,8.8,0.2,9.5,0.2s2.9-1,2.6-2.6
				c-0.3-1.8,5.9-1.3,5.2,1.5v0.3c0,0,0.5-0.7,0-2.3c-0.7-1.6-5.4-2-7.7,0.3c-1.5,1.8-6.1,1.3-6.5,1.1c-0.3-0.2-1-0.2-1.5-0.2
				c1.5-2,6.1-7.9,9.8-13.6l0,0c0.3-0.3,0.5-0.7,0.8-1.1c1.6-2.1,3.1-4.6,4.7-6.9c1.1-1.8,2.5-3.6,3.4-5.4c0.2-0.2,0.2-0.3,0.3-0.7
				c0.3-0.5,0.7-1,0.8-1.5c5.9-10.1,1.1-16.2,1.1-16.2c9.5,0,15.7-0.8,19.8-1.8c2.1-0.5,3.6-1,4.7-1.5c0.7-0.3,1.1-0.5,1.6-0.8
				c0.2-0.2,0.5-0.3,0.7-0.3c0.7-0.5,0.8-0.8,0.8-0.8s10.3,1.5,12.4-0.3c1.1-1,11.1-1.1,18.7-0.8c0.8,0,1.6,0,2.5,0.2
				c3.4,0.2,6.1,0.5,6.2,0.7c0.2,0.3,4.3,0.8,8,1.1l0.7,0.2l-0.2-0.2c2.5,0.2,4.7,0.2,5.9,0.2c1.3,0,10.3,2.6,19.6,5.4
				c1.1,0.3,2.3,0.7,3.6,1.1c9,2.8,17.3,5.6,17.3,5.6S788.9,54.9,786.3,50.3z"/>
		</g>
	</g>
</g>
</svg>
