<?xml version="1.0" encoding="utf-8"?>
<!-- Generator: Adobe Illustrator 19.0.0, SVG Export Plug-In . SVG Version: 6.00 Build 0)  -->
<svg version="1.1" id="Layer_1" xmlns="http://www.w3.org/2000/svg" xmlns:xlink="http://www.w3.org/1999/xlink" x="0px" y="0px"
	 viewBox="0 0 75 74.9" style="enable-background:new 0 0 75 74.9;" xml:space="preserve">
<style type="text/css">
	.st0{
	fill:#FFFFFF;
	}
</style>
<g>
	<path id="XMLID_1_" class="st0" d="M71.6,44.1c0-1.7-1.3-3.1-3-3.2l0-0.1c0-0.5,0.1-1.1,0.1-1.6c0-10.1-3.4-18.8-9.8-25.1
		c-6.1-6-12.4-9.3-21.5-9.3c-9.2,0-15.4,3.3-21.5,9.3C9.4,20.5,6,29.1,6,39.2c0,0.4,0,0.8,0,1.2l0,0.5c-1.6,0.1-3,1.5-3,3.2v21.5
		c0,1.8,1.4,3.3,3.1,3.3h1.1c0.6,0.7,1.5,1,2.3,1h3.2c1.8,0,3.3-1.5,3.3-3.4V43.2c0-1.9-1.5-3.4-3.3-3.4h-2.1
		C10.9,23.7,20.5,9.5,38,9.5c15.7,0,25.8,14.2,26,30.3h-2.1c-1.8,0-3.3,1.5-3.3,3.4v23.3c0,1.9,1.5,3.4,3.3,3.4h3.2
		c0.9,0,1.7-0.4,2.3-1h1.1c1.7,0,3.1-1.5,3.1-3.3V44.1z"/>
</g>
</svg>
