<?xml version="1.0" encoding="utf-8"?>
<!-- Generator: Adobe Illustrator 19.0.0, SVG Export Plug-In . SVG Version: 6.00 Build 0)  -->
<svg version="1.1" id="Layer_1" xmlns="http://www.w3.org/2000/svg" xmlns:xlink="http://www.w3.org/1999/xlink" x="0px" y="0px"
	 viewBox="0 0 75 74.9" style="enable-background:new 0 0 75 74.9;" xml:space="preserve">
<style type="text/css">
	.st0{fill:#FFFFFF;}
</style>
<path class="st0" d="M69.6,31.9v-4.2l-0.3-1.2c-0.1-0.1-1.5-2.6-4.3-5.1c-2.1-1.9-5.2-3.9-9.1-4.7V8.8c-17,1.2-18.8,14.6-18.8,14.6
	v0.1c0,0,0,0,0,0.1c-0.6-0.7-1.4-1.5-2.2-2.3c-2.8-2.5-7.2-5.1-12.9-5.1c-5.8,0-10.1,2.6-12.9,5.2c-2.8,2.5-4.1,5-4.2,5.2l-0.3,1.1
	v4.2H2.3v35.3h70.2V31.9H69.6z M14.9,60c1.9-1.1,4.2-1.9,6.9-1.9c2.8,0,5.1,0.8,7,1.9H14.9z M34.7,58.4c-2.8-2.5-7.2-5-12.8-5h0
	c-5.6,0-9.8,2.5-12.6,4.9v-30c0.5-0.7,1.6-2.2,3.2-3.6c2.2-1.9,5.3-3.7,9.4-3.7c4.3,0,7.5,1.9,9.8,3.9c1.1,1,2,2,2.6,2.8
	c0.2,0.3,0.4,0.5,0.5,0.7V58.4z M52,13v3.2V21v27.6c0,0-6.4-1.1-12.5,4.4V28.2v0v-2.8C39.5,25.4,41.8,15,52,13z M45.1,60
	c1.9-1.1,4.2-1.9,6.9-1.9c2.8,0,5.1,0.8,7,1.9H45.1z M64.9,58.4c-2.8-2.5-7.1-5-12.8-5c-5.6,0-9.8,2.5-12.6,4.9v-0.2
	c5.3-7.2,16.5-5.3,16.5-5.3V21.5c2.4,0.7,4.4,2,5.9,3.4c1.1,1,2,2,2.6,2.8c0.2,0.3,0.4,0.5,0.5,0.7V58.4z"/>
</svg>
