<?xml version="1.0" encoding="utf-8"?>
<!-- Generator: Adobe Illustrator 19.0.0, SVG Export Plug-In . SVG Version: 6.00 Build 0)  -->
<svg version="1.1" id="Layer_1" xmlns="http://www.w3.org/2000/svg" xmlns:xlink="http://www.w3.org/1999/xlink" x="0px" y="0px"
	 viewBox="0 0 75 74.9" style="enable-background:new 0 0 75 74.9;" xml:space="preserve">
<style type="text/css">
	.st0{fill:#FFFFFF;}
</style>
<g id="XMLID_15_">
	<path id="XMLID_16_" class="st0" d="M60.6,1.9v4.8h-5.6V1.9h-3.4v2.3H23.3V1.9h-4v4.9h-5.6V1.9h-2.2v3.8v3.4v53v3.4v6.3h1.9v-5.6
		H19v5.6h4.3v-4.8h28.3v4.8h3.3v-5.6h5.6v5.6h2.9v-6.3v-3.4v-53V5.6V1.9H60.6z M19.3,62.1h-5.6v-5.6h5.6V62.1z M19.3,50.7h-5.6v-5.6
		h5.6V50.7z M19.3,38.9h-5.6v-5.6h5.6V38.9z M19.3,27.6h-5.6V22h5.6V27.6z M19.3,16.7h-5.6v-5.6h5.6V16.7z M51.5,62H22.6V39.6h28.9
		V62z M51.5,33.6H22.6v-23h28.9V33.6z M60.5,62.1h-5.6v-5.6h5.6V62.1z M60.5,50.7h-5.6v-5.6h5.6V50.7z M60.5,38.9h-5.6v-5.6h5.6
		V38.9z M60.5,27.6h-5.6V22h5.6V27.6z M60.5,16.7h-5.6v-5.6h5.6V16.7z"/>
</g>
</svg>
