<?xml version="1.0" encoding="utf-8"?>
<!-- Generator: Adobe Illustrator 19.0.0, SVG Export Plug-In . SVG Version: 6.00 Build 0)  -->
<svg version="1.1" xmlns="http://www.w3.org/2000/svg" xmlns:xlink="http://www.w3.org/1999/xlink" x="0px" y="0px"
	 viewBox="0 0 75 74.9" style="enable-background:new 0 0 75 74.9;" xml:space="preserve">
<style type="text/css">
	.st0{fill:#8BD3DA;
		cursor:pointer;
	}
	.st1{fill:#FFF;}

	.st0:hover{

		fill: #f5c073;
	}
</style>
<g id="bg">
	<rect id="XMLID_5_" x="0" y="-0.2" class="st0" width="75.4" height="75.4"/>
</g>
<g id="bird">
	<path id="XMLID_4_" class="st1" d="M62.8,21.9c-1.8,0.8-3.8,1.4-5.9,1.6c2.1-1.3,3.8-3.3,4.5-5.7c-2,1.2-4.2,2-6.5,2.5
		c-1.9-2-4.6-3.3-7.5-3.3C41.7,17,37,21.6,37,27.3c0,0.8,0.1,1.6,0.3,2.3c-8.6-0.4-16.2-4.5-21.2-10.8c-0.9,1.5-1.4,3.3-1.4,5.2
		c0,3.6,1.8,6.7,4.6,8.6c-1.7-0.1-3.3-0.5-4.7-1.3v0.1c0,5,3.6,9.2,8.3,10.1C22,41.9,21.1,42,20.1,42c-0.7,0-1.3-0.1-1.9-0.2
		c1.3,4.1,5.1,7.1,9.6,7.2c-3.5,2.8-8,4.4-12.8,4.4c-0.8,0-1.7-0.1-2.5-0.1c4.6,2.9,10,4.6,15.8,4.6c19,0,29.3-15.7,29.3-29.3
		c0-0.4,0-0.9,0-1.3C59.7,25.7,61.4,23.9,62.8,21.9z"/>
</g>
</svg>
