<?xml version="1.0" encoding="utf-8"?>
<!-- Generator: Adobe Illustrator 18.0.0, SVG Export Plug-In . SVG Version: 6.00 Build 0)  -->
<!DOCTYPE svg PUBLIC "-//W3C//DTD SVG 1.1//EN" "http://www.w3.org/Graphics/SVG/1.1/DTD/svg11.dtd">
<svg version="1.1" id="Layer_1" xmlns="http://www.w3.org/2000/svg" xmlns:xlink="http://www.w3.org/1999/xlink" x="0px" y="0px"
	 viewBox="0 0 490.7 163.3" enable-background="new 0 0 490.7 163.3" xml:space="preserve">
<g id="XMLID_2_">
	<path d="M451.8,114.2h-415v-56h415V114.2z M37.8,113.2h413v-54h-413V113.2z"/>
</g>
<g>
	<path d="M44.3,101.2c5.2,0,7.1-5.3,9.4-10.3l8.7-20.1h0.3l11.3,23.9c1.4,3.1,3.3,6.5,6.5,6.5v0.3H63.2v-0.3c3.6,0,4.3-2.8,2.8-6.3
		l-1.6-3.4H54l-0.3,0.9c-1.7,4.7-1.4,8.9,4.2,8.9v0.3H44.3V101.2z M64.1,90.9l-5.1-11.2l-4.8,11.2H64.1z"/>
	<path d="M80.4,91.4c0-6,3.8-10.8,10.3-10.8c2.3,0,4,0.6,5.1,1.5v-8.5c0-2.9-1.3-3.7-3.9-3.7v-0.3l10.6-1v28.8
		c0,2.5,0.5,3.8,3.2,3.8v0.3H96v-2.7c-1.4,1.7-3.5,3.2-6.7,3.2C83.7,102,80.4,97,80.4,91.4z M95.8,98.4V84.1c-0.5-1.6-1.8-3-3.6-3
		c-3.5,0-4.8,5.9-4.8,10c0,5,1.6,9.1,4.9,9.1C93.9,100.2,95,99.4,95.8,98.4z"/>
	<path d="M110.5,86c-1.2-2.4-2.6-4.5-4.8-4.5v-0.3h14.1v0.3c-2.9,0-3.3,1.6-2.2,4.2l4,8.7l1.8-4.1c1.1-2.7,1.8-4.7,1.8-6.2
		c0-1.5-0.8-2.6-3-2.6v-0.3h9.5v0.3c-2.2,0-3.7,1.1-4.9,3c-0.9,1.4-1.9,3.4-3,6.1l-5.1,11.2h-0.2L110.5,86z"/>
	<path d="M131.2,91.3c0-6.1,4.6-10.7,11.2-10.7c5.8,0,9.9,3.6,10.1,9.7h-14.4c0,6.5,2.5,10.6,7,10.6c3.4,0,5.7-2.3,7-4.2l0.3,0.2
		c-1.6,2.3-4.4,5.2-10,5.2C135.1,102,131.2,96.9,131.2,91.3z M138.2,89.9h7.7c0-2.3-0.2-9-3.6-9C139.4,80.9,138.3,86,138.2,89.9z"/>
	<path d="M155.1,101.2c2.7,0,3.2-1.3,3.2-3.8V85.7c0-2.5-0.5-3.8-3.2-3.8v-0.3l9.7-1v4.1c1.9-2,4.7-4.1,8.1-4.1c3.2,0,6,1.9,6,6.6
		v10.1c0,2.5,0.5,3.8,3.2,3.8v0.3h-12.8v-0.3c2.2,0,2.9-1.3,2.9-3.8V86.6c0-2.6-1.1-3.7-3-3.7c-1.8,0-3.2,1.1-4.3,2.2v12.3
		c0,2.5,0.6,3.8,2.8,3.8v0.3h-12.8V101.2z"/>
	<path d="M186.7,95.6V81.8h-3.2v-0.6h3.2v-5.3l6.7-1.3v6.5h6.1v0.6h-6.1v14.8c0,2.5,0.8,3.6,2.6,3.6c2,0,3.4-1.5,4.5-2.8l0.2,0.2
		c-1.7,2-4,4.4-7.9,4.4C189.2,102,186.7,99.9,186.7,95.6z"/>
	<path d="M203.8,95.4v-9.6c0-2.5-0.5-3.9-3.2-3.9v-0.3l9.9-1V96c0,2.6,1.1,3.7,3,3.7c1.7,0,3.2-1.1,4.3-2.2V85.9
		c0-2.5-0.6-3.9-2.8-3.9v-0.3l9.6-1v16.6c0,2.5,0.5,3.9,3.2,3.9v0.3h-9.7v-3.6c-1.9,2-4.7,4.1-8.1,4.1
		C206.6,102,203.8,100.1,203.8,95.4z"/>
	<path d="M229.2,101.2c2.7,0,3.2-1.4,3.2-3.9V85.9c0-2.5-0.5-3.9-3.2-3.9v-0.3l9.7-1v6.7c1-3.4,3.3-6.7,6.6-6.7
		c2.6,0,3.8,1.9,3.8,3.7c0,2.1-1.6,3.7-3.6,3.7c-2,0-3.7-1.7-3.6-4c-1.3,0.6-2.5,1.9-3.1,3.5v9.7c0,2.7,0.9,3.9,3.5,3.9v0.3h-13.5
		V101.2z"/>
	<path d="M251,91.3c0-6.6,5.4-10.7,11.8-10.7c6.5,0,11.8,4.1,11.8,10.7c0,6.6-5.3,10.7-11.8,10.7C256.3,102,251,98,251,91.3z
		 M267.5,91.3c0-6.5-1.2-10.3-4.7-10.3c-3.4,0-4.7,3.8-4.7,10.3c0,6.5,1.3,10.3,4.7,10.3C266.2,101.7,267.5,97.8,267.5,91.3z"/>
	<path d="M280,95.4v-9.6c0-2.5-0.5-3.9-3.2-3.9v-0.3l9.9-1V96c0,2.6,1.1,3.7,3,3.7c1.7,0,3.2-1.1,4.3-2.2V85.9
		c0-2.5-0.6-3.9-2.8-3.9v-0.3l9.6-1v16.6c0,2.5,0.5,3.9,3.2,3.9v0.3h-9.7v-3.6c-1.9,2-4.7,4.1-8.1,4.1C282.8,102,280,100.1,280,95.4
		z"/>
	<path d="M306.9,101.1l-0.2-6.4l0.2,0c1.6,3.5,3.2,7.1,7.7,7.1c3.4,0,4.3-2,4.3-3.4c0-5.5-12.1-3.3-12.1-11.3c0-4,3.1-6.4,8.5-6.4
		c2.9,0,4.9,0.7,7.4,0.1l0.3,6.9l-0.2,0c-1.4-3.2-3.3-6.7-7.1-6.7c-2.7,0-3.7,1.8-3.7,3.3c0,5.2,12.2,3.2,12.2,11.2
		c0,4.3-3.6,6.6-9.3,6.6C312.1,102,308.8,101.5,306.9,101.1z"/>
	<path d="M338.2,101.2c3.4,0,4.2-1.1,4.2-4.8V76.2c0-3.7-0.7-4.8-4.2-4.8V71h15.7v0.3c-3.4,0-4.2,1.1-4.2,4.8v12.7l8.3-8.2
		c2.9-2.9,4.6-5.4,4.6-7c0-1.3-1.1-2.2-3.8-2.2V71h13.9v0.3c-2.8,0-5.1,1.2-7.3,2.9c-2.1,1.6-4.2,3.7-6.9,6.4l-1.1,1.1l10.3,15.2
		c2.1,3.1,3.8,4.3,5.7,4.3v0.3h-11.5l-9.6-14.6l-2.6,2.6v6.9c0,3.7,0.7,4.8,4.2,4.8v0.3h-15.7V101.2z"/>
	<path d="M374.2,96.3c0-4.1,3.8-5.7,8.4-5.7c1.9,0,3.9,0.3,5.4,0.7v-5.1c0-3-0.7-5.3-4-5.3c-2.2,0-3.5,1.1-4.4,2.3
		c1.3,0.5,2.1,1.9,2.1,3.2c0,1.8-1.5,3.3-3.3,3.3c-2.1,0-3.3-1.8-3.3-3.4c0-3.1,3.7-5.6,9.3-5.6c4.9,0,10.4,2,10.4,7.7V99
		c0,1.1,0.6,1.5,1.3,1.5c1.4,0,2.6-1.5,3.3-2.6l0.2,0.1c-1.2,2-2.9,3.9-6.1,3.9c-2.8,0-4.5-1.4-5.1-3.4c-1.3,1.8-3.4,3.5-7.1,3.5
		C377.1,102,374.2,99.8,374.2,96.3z M388.1,98.4v-6.6c-0.9-0.2-1.9-0.5-2.9-0.5c-2.7,0-4,1.6-4,4.8c0,2.6,1,4.6,3.2,4.6
		C385.7,100.6,387,99.8,388.1,98.4z"/>
	<path d="M402.4,95.6V81.8h-3.2v-0.6h3.2v-5.3l6.7-1.3v6.5h6.1v0.6h-6.1v14.8c0,2.5,0.8,3.6,2.6,3.6c2,0,3.4-1.5,4.5-2.8l0.2,0.2
		c-1.7,2-4,4.4-7.9,4.4C404.9,102,402.4,99.9,402.4,95.6z"/>
	<path d="M417.3,91.3c0-6.1,4.6-10.7,11.2-10.7c5.8,0,9.9,3.6,10.1,9.7h-14.4c0,6.5,2.5,10.6,7,10.6c3.4,0,5.7-2.3,7-4.2l0.3,0.2
		c-1.6,2.3-4.4,5.2-10,5.2C421.2,102,417.3,96.9,417.3,91.3z M424.3,89.9h7.7c0-2.3-0.2-9-3.6-9C425.5,80.9,424.4,86,424.3,89.9z"/>
</g>
</svg>
